<?xml version="1.0" standalone="no"?>
<!DOCTYPE svg PUBLIC "-//W3C//DTD SVG 1.1//EN" "http://www.w3.org/Graphics/SVG/1.1/DTD/svg11.dtd" >
<svg xmlns="http://www.w3.org/2000/svg" xmlns:xlink="http://www.w3.org/1999/xlink" version="1.1">
<metadata></metadata>
<defs>
<font id="handyhandyregular" horiz-adv-x="1100" >
<font-face units-per-em="2048" ascent="1638" descent="-410" />
<missing-glyph horiz-adv-x="508" />
<glyph horiz-adv-x="0" />
<glyph unicode="&#xd;" horiz-adv-x="508" />
<glyph unicode=" "  horiz-adv-x="508" />
<glyph unicode="&#x09;" horiz-adv-x="508" />
<glyph unicode="&#xa0;" horiz-adv-x="508" />
<glyph unicode="!" horiz-adv-x="539" d="M0 152l12 8l16 -8q0 44 12 44h4l16 -12q10 52 16 52q21 -4 24 -4q8 4 12 4l36 -20l8 4q35 -9 72 -32q10 0 36 -12q1 8 8 8h4q24 0 24 -28h20q24 -2 24 -12v-28q-1 -9 -68 -80q-20 -36 -28 -36h-20q-32 0 -104 36q-94 34 -112 64q-7 0 -12 52zM100 336v40q0 37 20 164h-4 q56 240 88 488q8 105 8 136q-4 8 -4 12l8 4h4l12 -8q7 48 16 48q0 -9 20 -12q9 52 20 52q0 -7 56 -16v-4h8q17 0 32 -8q8 4 12 4q0 -6 36 -28h20q0 -10 16 -12q1 8 8 8q32 -4 32 -12q-4 -7 -4 -16q4 0 4 -4h-4q0 -4 4 -4l-4 -24q0 -155 -92 -608q-4 -56 -16 -104q0 -4 4 -4 l-4 -40v-40l-28 -36q-31 -37 -44 -44q-5 -24 -12 -24q-4 8 -4 12h-4q0 -12 -8 -12q-16 6 -16 12l-8 -4h-4q-20 16 -24 16q0 -4 -4 -4q0 5 -20 20q0 -8 -4 -8q-47 24 -68 24q0 5 -24 24v4l-8 -4q-16 6 -16 12z" />
<glyph unicode="&#x22;" horiz-adv-x="600" d="M0 1213q55 93 73 144q0 3 -3 3l6 48q-1 17 -12 28q1 6 6 6l22 -3v9q-10 0 -10 6q9 19 13 19l12 -10h9l-3 16q1 6 6 6l-3 6v3q1 6 6 6h3q7 0 12 -3l6 3q58 -16 58 -18l6 3q13 -12 46 -25v-3l31 3q13 0 15 -42v-6q0 -117 -125 -251q-2 -15 -9 -15h-3v9l-9 -6q-25 0 -40 15 l-6 -3q0 5 -12 13l-7 -4q-10 0 -27 16q-6 -3 -9 -3l-49 30h-3zM259 1183q0 13 71 119q15 21 27 88q-6 33 -24 46q1 6 6 6q10 -6 15 -6q6 3 9 3v6q-9 0 -9 6l3 18q10 0 21 -9h13q-10 10 -10 16q3 9 7 9l-4 6v3l4 6q109 -19 109 -34q19 -3 31 -12q7 6 12 6q40 0 40 -61 q0 -73 -86 -186l-3 -6l6 -9v-6q0 -6 -15 -6l3 -6v-3q-33 -38 -33 -40l-16 -9l3 -6v-6h-12q-47 0 -168 67z" />
<glyph unicode="#" d="M0 760q4 7 4 16l-4 8l4 8l-4 24l8 4h28q156 0 156 32q28 150 28 244l8 4q15 -32 24 -32q0 24 8 24l8 -4q1 8 8 8q4 -8 8 -36q13 12 40 24q18 -15 44 -108h4l-4 -20v-12q8 -28 8 -32v-12q20 -4 20 -28q32 8 192 24l8 -4q24 0 24 40q0 20 4 148l8 4h8q3 -28 16 -28 q3 24 12 24q4 0 4 -4l8 4h8l-4 -20q8 0 8 -16h4q0 15 36 28q23 -29 28 -64h-4l20 -48q4 -69 4 -80l8 4q51 -27 64 -40q36 -98 44 -176q11 0 16 -40v-8q0 -12 -36 -20q-9 0 -16 4q-7 -4 -16 -4q-6 5 -32 12l-8 -4q-7 4 -16 4l-4 -56h4q210 0 212 -48q8 -11 16 -36l-4 -8 l20 -44l-4 -16l4 -8q-4 -7 -4 -16q8 -1 8 -8v-24q20 0 20 -28v-8q-8 -16 -20 -16l-16 4q-8 -4 -12 -4q-28 12 -32 12l-24 -4q0 6 -16 12q-13 -8 -20 -8q0 16 -160 16q-20 -151 -20 -288q-5 -32 -28 -32q0 8 -8 8l-12 -8q-7 8 -80 20l-12 -8q-36 39 -36 96h4q-12 29 -12 48h4 l-12 40q4 7 4 16l-4 8q4 7 4 16l-4 16h16v72h-4q-31 0 -184 -32q-48 -7 -48 -28q-8 -43 -8 -144q0 -27 8 -72l-12 -8h-4l-12 8l-12 -8q-28 12 -32 12l-8 -4q-31 12 -40 12l-12 -8q-21 0 -52 204q-13 8 -24 8l-20 -4l-4 8l4 8q-18 0 -24 36l4 20l-8 4l4 20v4q-10 0 -12 20 l4 24q-7 0 -12 24q4 7 4 16l-4 8l4 8l-4 24q73 24 96 28q8 23 8 64h-20q-10 8 -16 8q-80 0 -80 12l4 8q-18 0 -24 36l4 20l-8 4l4 8v8q-8 12 -12 28l4 24q-7 0 -12 24zM360 564q123 12 160 12h4q20 0 60 -4l8 68l-228 -40q0 -14 -4 -36z" />
<glyph unicode="$" horiz-adv-x="1000" d="M0 289q1 12 18 17q0 15 25 36q0 7 29 31q-4 7 -4 11l8 3h3q35 0 94 -28q32 -14 87 -17q76 3 126 17q32 233 39 324q-219 63 -277 162q-12 16 -22 60q4 7 4 11q0 3 -4 3q0 71 144 215q70 53 188 109q0 27 47 134q19 0 39 71q-3 0 -3 3l14 11h11l4 -18l7 4q47 -53 47 -67h3 q7 3 11 3q0 -3 4 -3l-11 -95h3q58 0 206 -71q32 -23 32 -31q-4 -39 -25 -39q0 -19 -22 -32q0 5 -10 11q0 -7 -4 -7q4 -7 4 -11q-10 -23 -18 -25q-20 4 -29 4q0 -4 -4 -4q0 7 -7 7h-18v7h-11l-25 8q-7 -4 -11 -4q-3 10 -25 18q-42 -13 -51 -25l4 -7q-4 -6 -4 -14h4 q-4 -7 -4 -11q0 -19 -3 -144l-4 -14q0 -4 4 -4l-4 -17v-25q0 -42 -7 -42l4 -7v-4q0 -3 -4 -3q0 -4 4 -4l-4 -18v-14q43 0 263 -102q101 -52 101 -127h-4q0 -3 4 -3q-18 -115 -216 -250q-153 -74 -217 -74q0 -4 4 -4l-4 -7l4 -17q-4 -23 -18 -50q-24 -24 -29 -45 q-7 -1 -32 -50q-6 0 -33 -35h-3q-7 0 -7 7v11l3 7q-3 0 -3 3l-8 -3l-11 7l-7 -4l-3 7v18l3 7q-14 5 -14 10l-7 -3h-4q-7 0 -7 7v35q0 8 3 14l-7 39q7 13 7 28q-3 0 -3 -3q-7 3 -11 3q-104 0 -245 53q-46 5 -101 46zM393 937q0 -54 43 -95l7 165q-50 -27 -50 -70zM555 405 q144 68 144 113q0 72 -104 116q-7 -3 -11 -3l4 -8q-10 -68 -15 -77l4 -7q0 -18 -7 -18q0 -3 3 -3l-14 -71h3q-3 -6 -7 -42z" />
<glyph unicode="%" horiz-adv-x="1400" d="M0 1156q0 120 168 264q44 13 44 16q148 -30 148 -48q10 0 36 -8l8 4q8 0 64 -24q10 0 80 -32q74 0 100 -56q0 -12 4 -28h4q19 112 44 112q6 36 32 36q0 -4 4 -4q0 36 32 44q1 -8 8 -8q4 0 12 4l76 -24q8 4 12 4q0 -6 36 -28h20v-8l28 4q24 -2 24 -12v-8q-19 -16 -60 -212 l-20 -60h4q-92 -287 -232 -652q-96 -237 -96 -292q-16 0 -16 -20q-10 0 -52 -52h-4l4 -8q0 -6 -12 -12l-12 8q0 -8 -8 -8q-16 3 -16 8l-8 -4h-4q-32 20 -32 24h-12q-19 0 -44 20q-39 0 -56 32l-8 -4q-16 4 -16 16q0 42 128 368q104 268 208 588h-4q-174 -236 -268 -236 l-20 -4v4l-8 -4q-72 0 -252 100q-64 75 -64 156v28q0 9 -4 16zM296 1160q8 -64 8 -72h4q52 56 52 120l-4 8v4q0 4 4 4q0 10 -24 24q-40 0 -40 -84v-4zM668 264h4q0 4 -4 4q0 156 200 328q21 16 44 16h4q164 -21 164 -44l80 -16q36 -27 36 -52q-7 -4 -16 -4v-20q9 -16 96 -28 q38 -33 56 -104q0 -111 -124 -232q-86 -112 -196 -112q-106 0 -292 116q-52 50 -52 148zM964 260q0 -16 8 -52h8q56 40 56 96v8q0 46 -36 88q-9 -2 -32 -72h4q-8 -18 -8 -52v-16z" />
<glyph unicode="&#x26;" d="M0 265v4q0 101 273 335v5q-130 227 -159 348l-5 22v27q0 100 191 234q307 154 410 154h18q85 0 219 -53q105 0 105 -84q0 -248 -346 -600q-61 -66 -73 -66l82 -150h4q28 31 28 57q26 0 32 45h9q9 0 9 -14q10 0 22 58h5q73 -5 73 -22q9 4 14 4q29 -9 31 -9q9 5 14 5 q21 -31 59 -31q0 -9 23 -18q0 13 9 13h5q27 -2 27 -13h-5l5 -9q0 -68 -187 -260q186 -94 187 -101v-14l-23 -4l9 -13q-40 -32 -41 -44q-32 -23 -32 -27q5 -8 5 -13l-9 -5h-5q-4 0 -4 5l-9 -5q-30 0 -246 93q-187 -119 -301 -119h-27q-91 0 -305 119q-91 88 -91 146zM337 287 q14 -71 36 -71l119 53q-72 80 -82 110h-5q-68 -48 -68 -83v-9zM442 1023l9 -44h-5l59 -154h5q143 135 196 331h-5q-242 -100 -259 -133z" />
<glyph unicode="'" horiz-adv-x="346" d="M20 1316v4q0 12 4 12l-4 20v4q0 16 8 52q-4 8 -4 12q7 22 16 32l-4 8l4 24q-4 8 -4 12l8 4q0 -4 4 -4v4l-4 8q0 16 16 16l-4 8q1 8 8 8l12 -8q73 16 84 16q8 -4 12 -4q1 8 8 8q68 -40 116 -220q4 -4 4 -32v-12q0 -38 -28 -108q0 -63 -52 -164h-4q-32 10 -32 20h-4 q0 -22 -16 -32q-20 5 -20 12v4l4 8l-8 4q-15 -32 -20 -32q-8 0 -8 8q0 12 4 12l-4 20v4q8 58 8 64v4q-36 141 -100 204z" />
<glyph unicode="(" horiz-adv-x="600" d="M0 673q4 8 4 24q0 5 -4 5q0 187 96 597q34 103 192 308l28 20q12 0 60 -15q0 5 4 5q0 -11 56 -24q0 -10 56 -34h8q9 0 16 4q28 -8 28 -19v-5q0 -7 -16 -15l4 -10q-21 -23 -48 -63q-20 -13 -20 -20l8 -14q-111 -27 -172 -641q-4 -49 -4 -123l4 -9l-4 -10q16 -239 56 -372 q37 -99 76 -162q86 -128 108 -137l8 5q28 -6 28 -14v-5q0 -33 -72 -113q-5 -34 -20 -34q-45 0 -108 39q-94 37 -164 122q-129 175 -148 270q-60 200 -60 440z" />
<glyph unicode=")" horiz-adv-x="600" d="M0 -90q1 10 8 10h4l8 -5l12 20q-8 0 -8 10q8 4 12 4l-4 10q1 10 8 10l8 -5q14 30 20 30l-4 9q36 33 112 191q40 80 68 220q0 5 4 5q0 5 -4 5q28 173 28 416q-4 0 -4 4h4l-4 10v10l4 10q-4 0 -4 5h4l-4 9v59l-4 10h4q-13 123 -20 152h4q-4 33 -24 117q4 0 4 5 q-5 0 -32 102q-53 115 -72 137q0 10 12 10q12 -5 12 -10q7 5 16 5q-12 16 -12 25q4 29 12 29l16 -15h12q0 6 -4 15q5 49 16 49l12 -10q2 0 16 5l68 -29l8 5h4q13 -14 40 -35l8 5l16 -14h8l12 9l4 -9l8 5q39 -36 84 -152q32 -95 56 -249h-4q4 -7 12 -103h-4l8 -39q0 -5 -4 -5 q8 -89 8 -206v-4q-26 -397 -44 -397q-22 -147 -240 -484q-45 -73 -60 -73l-20 -5q-32 11 -56 29q-60 20 -60 35l-8 -5q-49 29 -80 58z" />
<glyph unicode="*" horiz-adv-x="1024" />
<glyph unicode="+" horiz-adv-x="900" d="M0 553l6 3l-6 13l6 12q-3 6 -3 10q16 10 16 12q-3 6 -3 10l12 9q-3 6 -3 10q15 23 22 50q13 11 29 38q60 -25 145 -25q101 3 113 3q0 3 3 9q-3 0 -3 3h3q-3 7 -3 10t3 9q0 4 -3 10q3 17 3 25q0 3 -3 10l3 6q-3 50 -6 66h3q0 3 -16 85q3 0 3 3q-3 0 -3 3q6 4 13 4v3l-3 6 q6 0 34 38q16 0 16 25q7 0 13 -3l6 3q27 0 38 -16q6 3 9 3l10 -12l6 3q37 -19 54 -19q1 -4 37 -28q16 -71 16 -155v-60q107 19 177 26h41q13 -19 15 -19q22 -8 22 -13v-9l-6 -10q38 0 38 -16q0 -15 -6 -15l3 -7v-3l-25 -72q-8 -6 -22 -44q0 -4 3 -10q-2 -31 -32 -31 q0 15 -3 15l-6 -3q-10 3 -10 7q-71 -10 -201 -32q-10 -38 -10 -95v-12l-3 -6h3l-3 -7v-44q0 -3 -3 -3l3 -6v-35q0 -17 -13 -25l-6 3q0 -7 -9 -32h-7l-9 7h-6v-13q0 -23 -10 -25l-19 3q-6 -3 -9 -3q0 6 -7 6h-15q0 8 -48 16q-17 15 -50 25q0 -6 -6 -6h-3q-17 0 -19 9v7 q1 22 6 22l-3 6v13q0 3 3 3q-3 6 -3 9q0 50 6 101h-3l3 6v13l3 32l-6 3h-3q-11 0 -29 -3q-6 3 -9 3q-6 -3 -9 -3v3l-7 -3q-171 0 -201 44q0 3 -54 47z" />
<glyph unicode="," horiz-adv-x="400" d="M-8 -218q98 163 108 314q0 8 -11 63l8 4h3q8 -1 8 -7q7 3 11 3q-7 16 -7 23q7 0 7 19h4l15 -12h15l-4 15l4 15q-4 7 -4 11l11 8q8 -1 8 -8l7 4q4 0 4 -4l7 4l19 -7q7 3 11 3q0 -9 37 -18l8 3q19 -15 71 -37v8h7q30 0 30 -27q4 -23 4 -52q0 -177 -131 -347q-7 -2 -48 -60 l-11 7q0 -7 -12 -7l-15 7q-7 -3 -11 -3l-15 18l-7 -3l-15 11l-8 -4q-29 11 -33 23l-8 -4h-3q-7 1 -49 30q-15 0 -15 7z" />
<glyph unicode="-" horiz-adv-x="900" d="M0 505v4l7 11v4q-7 0 -7 4q6 15 11 15l-4 7v4q25 31 34 71q11 4 11 7l-3 8q10 28 44 67q10 0 30 -4q82 7 82 15q4 0 4 -4q436 71 504 71v4q4 0 4 -4q40 0 52 19h4q5 0 11 -11q-8 -12 -8 -23l15 12q26 -6 26 -19q-3 -5 -3 -19q15 -1 15 -7l7 4h8q11 0 11 -15l-8 -15 q4 -7 4 -15q-7 -9 -30 -82q-9 -5 -30 -56l8 -4q0 -39 -41 -45l-8 4q-211 -23 -250 -34l-7 4q-173 -30 -329 -52v3q-14 -7 -41 -7h-11q-4 0 -4 4l-7 -4h-4q-66 56 -78 75z" />
<glyph unicode="." horiz-adv-x="400" d="M0 92v16l4 8h-4q8 46 44 84q0 12 80 80q140 -25 140 -44q36 -7 36 -16l20 4h8q24 -2 24 -12v-8l-4 -8l28 -4v-16q-94 -137 -144 -176h-12q-52 0 -68 20v-4l-60 24q0 7 -44 20z" />
<glyph unicode="/" horiz-adv-x="569" d="M0 96q10 0 36 104q18 148 62 308q0 4 -4 4q4 32 11 32q0 4 -4 4q23 130 33 136q0 4 -4 4q65 226 130 596q26 84 26 100q-8 0 -8 8v4l4 8l14 -8q7 4 11 4v8l-7 12l4 20h10q6 0 11 -12q7 4 11 4l-3 20q7 0 7 8q-4 7 -4 16q7 0 7 8q109 -27 138 -52q8 0 32 -12q1 8 7 8 q33 0 33 -28q-4 -40 -14 -60h3q-22 -88 -90 -436q-51 -170 -134 -592q0 -57 -47 -216q-6 0 -43 -56q-8 0 -29 -40l-11 8q0 -8 -7 -8l-15 8l-7 -4q-7 0 -22 20q-7 -4 -10 -4q-4 8 -4 12h-7q-23 0 -40 20q-7 -4 -11 -4q-42 25 -65 48z" />
<glyph unicode="0" horiz-adv-x="1014" d="M0 368v90q0 4 4 4q0 5 -4 5q40 287 157 522q30 72 136 231q161 201 216 201h9q152 -26 152 -47q98 -13 98 -30v-13q-14 0 -21 -4l4 -9v-4q-37 -29 -42 -51q179 -65 237 -193q47 -126 47 -188v-90q0 -4 -4 -4q0 -5 4 -5q-3 -34 -8 -34q0 -4 4 -4q-24 -208 -200 -467 q-204 -269 -305 -269q-30 -9 -51 -9h-38q-101 0 -302 124q-93 80 -93 244zM310 402q0 -137 55 -201q109 38 225 257l51 120h-4q42 112 42 240v55q-5 100 -72 223l-51 47q-96 -131 -178 -377q-68 -210 -68 -364z" />
<glyph unicode="1" horiz-adv-x="700" d="M0 1004v4q32 24 32 44l15 12h4l12 -8q4 48 24 48l24 -4q55 28 181 152q153 188 170 188h4l16 -4q7 4 11 4l68 -24l8 4h3q28 -28 56 -28q1 -8 8 -8q21 4 31 4l16 -8q-20 -76 -47 -280l4 -8l-40 -260q0 -4 4 -4q-12 -59 -35 -336q0 -4 3 -4q0 -90 -51 -340q-8 -28 -8 -48 v-4q-13 0 -20 -24q-10 0 -43 -44q-12 0 -12 -28h-12v8h-8v-8q-10 0 -23 8q-8 -4 -12 -4l-16 20l-8 -4h-4q0 6 -12 16q-7 -4 -11 -4q-18 0 -32 20l-8 -4h-4q-62 33 -67 44q63 308 63 428q0 4 -4 4q12 153 44 372q0 4 -4 4q8 38 12 76h-4q-80 -68 -135 -68q0 7 -35 12 q-5 14 -63 28l-67 36q-28 15 -28 20z" />
<glyph unicode="2" d="M0 111v9q104 137 162 150q49 11 96 102q104 145 221 385q137 295 137 411q-5 39 -12 39q-128 -48 -225 -150l-79 -99q0 9 -8 9q0 -9 -9 -9l-16 9q-8 -4 -13 -4q0 5 -21 21l-8 -4q-3 13 -17 17l-8 -4q-13 0 -38 21q-8 -4 -12 -4q-71 43 -71 47q24 82 221 257 q129 88 233 98h9q80 0 237 -60q88 0 133 -94q9 -26 13 -86q-27 -263 -342 -778q-9 -1 -37 -60q189 -34 375 -107q52 -29 125 -94q37 -5 37 -17q-4 0 -4 -5q4 0 4 -4l-21 -9l4 -8q-56 -64 -66 -64v-9q4 -8 4 -13l-8 -4h-5q-67 0 -166 56q-25 0 -134 81q-75 8 -75 13 q-4 0 -4 -5l-29 5h-21q-126 0 -212 -60q-67 -77 -121 -77q-51 0 -75 21q0 -4 -4 -4q0 4 -17 17q-8 -4 -12 -4q-81 43 -88 43z" />
<glyph unicode="3" d="M0 265v9h4l28 -5l4 9q-6 0 -12 13v8q8 0 8 5q-4 8 -4 13h8l16 -13q12 4 12 8l-4 9l8 17q-4 7 -4 17q4 0 4 4q148 -29 148 -51q22 0 40 -17h4v13q29 0 72 -52q86 -64 92 -64q157 0 304 150q64 90 64 197l-4 8q4 9 4 13q0 95 -116 188h-16q-57 0 -148 -60q-44 3 -84 30 q-52 10 -52 26l-8 -4q-52 21 -52 38l-8 -4q-16 6 -16 13q0 8 196 256q41 61 80 142h-4q-68 -15 -224 -120q-45 -34 -52 -34l-8 4q-8 -4 -12 -4l-16 8q-8 -4 -12 -4q-4 12 -44 30l-8 -4q-28 8 -28 25l-20 -4l-68 47q5 17 28 26q0 26 20 38q4 0 4 -4q14 0 20 34l12 13h4l8 -4 q236 175 420 175h16q168 -28 168 -51q112 -10 112 -64v-22q-4 -100 -200 -363q404 -107 404 -343h-4l4 -8q0 -97 -64 -218q-162 -222 -256 -274q-130 -60 -220 -60h-16q-200 0 -484 214z" />
<glyph unicode="4" d="M0 636q0 30 112 140q59 23 68 32q154 188 200 336q40 90 40 148l-4 24q0 18 28 24q0 31 16 36q0 -6 12 -12h8v4q0 48 20 48q0 -6 80 -20q0 -4 20 -8q8 4 12 4q0 -4 28 -28l8 4h8q18 -16 24 -16q1 8 8 8h8q22 0 24 -20q0 -166 -180 -452q-3 0 -124 -156v-4q11 0 84 -32 q160 18 160 60q36 153 60 212q12 0 32 44h4l12 -8h4q0 34 20 48q20 0 20 -8l8 4q34 -8 72 -24l8 4h4q18 -19 64 -32q1 -8 8 -8q1 8 8 8h12q48 0 48 -132v-4q0 -4 -4 -4q4 -8 4 -12q0 -94 -72 -156q0 -6 -76 -92q-116 -312 -116 -412h-4q0 -4 4 -4l-4 -20v-32q0 -9 4 -16 l-24 -36q-41 -48 -52 -48v-20q0 -8 -8 -8l-12 8q0 -8 -8 -8l-16 8q-8 -4 -12 -4l-20 20l-8 -4q-13 12 -48 20q0 6 -12 12q-8 -4 -12 -4q-54 30 -68 44v16q0 160 96 412q-72 0 -276 88q-55 -61 -72 -68h-12q-52 0 -88 32q-4 0 -4 -4q-12 0 -44 20q-80 29 -80 48z" />
<glyph unicode="5" d="M0 717q90 290 90 460v67q1 9 8 9l17 -9v18q-8 0 -30 17q-26 0 -68 36q-13 0 -13 8v5q2 0 17 4l22 -4l8 13q-21 0 -21 9q8 0 8 9q-4 8 -4 13l9 5h29l5 22q-5 8 -5 13l9 4h4l196 -26q29 -5 47 -5q120 0 452 58h17q145 -27 145 -49q94 -12 94 -26v-14q-61 -76 -86 -92l9 -5 q-6 -18 -13 -18l-13 9l-4 -9l-38 5q-304 -53 -409 -53l-26 4q-4 0 -4 -4l-22 4h-21q-9 -105 -30 -212q235 -39 456 -124q239 -135 239 -341q0 -158 -141 -310q-149 -204 -392 -204h-13q-9 0 -17 -4q-193 0 -456 155v13h5q22 -4 25 -4q8 4 13 4v9q-17 0 -17 13l9 5l-5 9 q2 8 9 8l42 -17h5v4q-17 0 -17 13v18q0 5 4 5l-4 8v5l4 9q133 -24 170 -49q19 -9 69 -9h29q191 0 324 137q39 93 39 169v8q0 138 -141 248q-94 27 -149 27q-117 0 -239 -173l-13 9q0 -9 -8 -9q-17 4 -17 9l-9 -4q-17 6 -25 22l-9 -5l-17 14q-8 -5 -13 -5q-29 17 -29 27 l-9 -5h-4q-9 0 -9 9l-8 -4z" />
<glyph unicode="6" horiz-adv-x="1014" d="M0 551q0 319 181 629q164 232 253 232q117 -24 147 -43q0 -10 46 -17q8 4 13 4q34 -11 34 -17v-17q-17 0 -17 -13q-39 -51 -63 -69v-4l4 -9q-66 0 -131 -82q-70 -128 -113 -271h4q-9 -9 -30 -129h5q130 146 303 146q185 -35 185 -56q130 0 173 -155q4 -79 8 -82 q-36 -197 -135 -297q-213 -301 -383 -301v4l-8 -4q-150 0 -354 146q-122 135 -122 405zM307 573l5 -9v-26q0 -193 92 -331h4q145 53 232 211q50 114 50 172l-4 8v18q0 25 -12 64h-5q-54 -10 -160 -90l-8 4q-7 -4 -17 -4q-8 0 -8 8l-9 -4h-4q-44 35 -80 35q-4 8 -4 12h-21 l-34 18h-8q0 -18 -4 -18q0 -4 4 -4l-4 -21v-39q0 -4 -5 -4z" />
<glyph unicode="7" horiz-adv-x="1000" d="M0 1156v4q10 9 41 52q18 12 28 12l-4 8v4q38 44 343 152q95 24 168 24h36q66 -1 196 -52q94 0 147 -96q29 -72 29 -144v-60q0 -4 -4 -4l4 -8q0 -59 -90 -336q-53 -145 -155 -600q-28 -42 -73 -88q-9 -24 -17 -24q0 8 -8 8q-8 -1 -8 -8q-49 12 -49 24l-8 -4q-7 0 -17 16 q-8 -4 -12 -4q-10 0 -37 20q-24 0 -77 36q41 153 98 408q18 74 24 76q-4 8 -4 12q-52 -24 -102 -40q-8 4 -12 4l-8 -4q-17 3 -17 8l-8 -4q-13 13 -37 20l-65 28q-67 32 -69 32v12l28 8l-4 8q0 25 41 36l4 8q-4 7 -4 16q134 56 188 56q50 0 106 -20h16q78 227 78 332l-4 8 l4 8q0 50 -29 132q-105 0 -424 -152q0 -16 -8 -16l-17 8q0 -8 -8 -8q-12 4 -12 8l-8 -4h-4q-28 24 -82 36q0 7 -8 12l-8 -4q-44 17 -78 44z" />
<glyph unicode="8" horiz-adv-x="1014" d="M0 975v17q0 115 231 304q159 120 292 120q87 0 232 -60q86 0 109 -81v-17q0 -86 -61 -133q0 -7 -8 -17v-4h4q8 4 12 4q0 -6 25 -13v-4h8q24 0 93 -34q8 0 8 -9q36 4 45 4l8 -12v-18q-7 0 -32 -34q-34 -44 -45 -47l4 -8v-5q-87 -50 -341 -321q207 -153 207 -248v-21 q0 -4 -4 -4q0 -5 4 -5q-10 -77 -101 -184q-82 -145 -292 -145q-103 0 -207 51q-163 69 -163 124v18q0 52 236 397v5q-182 163 -227 243q-37 62 -37 137zM296 997q0 -109 110 -223v-4q274 279 312 295v4l-20 26l-8 -4l-21 17l-4 -9q-44 26 -65 26q-32 25 -32 30l-8 -4 q-6 0 -12 13v4q10 14 16 38l-8 5q-65 -17 -240 -150q-13 -16 -20 -64zM329 193h4q76 0 146 68q12 55 12 73q0 38 -33 94h-4q-13 -9 -117 -193q-8 -28 -8 -38v-4z" />
<glyph unicode="9" horiz-adv-x="1014" d="M0 942q0 178 219 384q93 95 218 95q100 0 293 -69q120 -42 120 -108q10 -39 20 -39q8 4 13 4q4 -17 74 -43q1 9 8 9h4q29 0 29 -22q0 -128 -223 -890q-8 -12 -53 -159q-20 -15 -83 -104l-4 9l-16 -5q-22 0 -54 22q-54 13 -62 30l-8 -4q-65 31 -74 47q53 161 140 471l-8 4 q-38 -30 -103 -30q-117 0 -351 156q-99 100 -99 242zM301 959q0 -110 83 -212q55 16 230 182q31 41 62 142q-16 0 -16 9l-8 -5q-8 10 -38 26l-8 -4q-3 0 -41 30q-4 0 -12 5l4 43q0 49 -21 56q-81 -15 -161 -86q-74 -82 -74 -186z" />
<glyph unicode=":" horiz-adv-x="400" d="M0 300v16q0 31 68 112l8 -4q24 42 24 44q72 -8 72 -20q42 0 84 -28q11 0 24 -12h8q8 0 8 8q41 0 48 -52q0 -58 -68 -116q-28 -56 -52 -56q-46 0 -72 20q-152 53 -152 88zM32 844v8q0 27 40 80q11 22 40 36q10 32 20 32q152 -27 152 -48q17 0 36 -12q1 8 8 8h4 q46 0 52 -56q0 -38 -80 -116q0 -16 -24 -32h-4q-59 0 -136 40q-76 28 -108 60z" />
<glyph unicode=";" horiz-adv-x="400" d="M0 168q0 45 73 116q6 17 35 32l15 -8l16 4q86 -23 150 -52q85 -7 85 -44q4 -15 4 -32v-16q0 -78 -85 -268q-45 -49 -77 -100q-66 8 -66 24l-7 -4q-6 0 -16 16l-7 -4q-14 0 -35 20l-8 -4q-24 9 -54 32l-15 4v12q73 146 73 212q-81 35 -81 60zM23 576l12 76h11l8 -4 q6 44 15 44l16 -12h4q7 52 19 52q5 -4 23 -4q0 16 8 16q143 -27 143 -48q14 0 38 -12q1 8 8 8q50 0 50 -68v-20q0 -26 -108 -144h-15q-50 0 -147 52q-85 32 -85 64z" />
<glyph unicode="&#x3c;" horiz-adv-x="800" d="M0 576v8q0 4 4 4l-4 8v16l72 40q122 69 396 340q83 112 112 112q4 0 12 -16q23 12 40 12l4 -8q-4 -7 -4 -16h4l40 12h4q5 0 20 -32l-4 -8q6 0 12 -16l-4 -8q12 -33 20 -44l-4 -16q4 -8 4 -12l-4 -8q8 -13 8 -24v-20q20 0 20 -24q-48 -35 -48 -40q-103 -125 -292 -292 q-40 -28 -40 -32v-4q84 -61 172 -176q100 -131 100 -160q0 -15 16 -56q0 -4 -4 -12q4 -27 28 -84v-8q0 -6 -12 -12q0 8 -8 8h-4l-12 -8q-18 11 -84 20q0 -8 -8 -8q-104 147 -196 240q-68 70 -180 124l-20 -4l-4 8q-14 -4 -16 -4q-53 8 -72 16l-24 -4q0 8 -16 28v4q4 0 4 4 q-4 0 -12 4l4 16q-4 22 -4 32q4 0 4 4q-12 3 -12 32v4l4 8q-12 0 -12 52z" />
<glyph unicode="=" horiz-adv-x="900" d="M0 358q8 0 8 7v4q-8 0 -8 4q6 14 11 14l-3 8v4q14 13 38 73q8 0 15 37l34 41l27 -4l560 78v-4q102 10 102 26h4q6 0 12 -11q-8 -12 -8 -22v-4l15 15q27 -9 27 -15v-4l-12 -18q23 -1 23 -8l8 4h4q6 0 15 -15q-14 -62 -30 -88l3 -8q-20 -27 -34 -62h-4l4 -19v-4 q0 -33 -80 -33q-232 -22 -556 -77q0 3 -4 3q0 -3 -3 -3v3l-8 -3h-65q-76 65 -76 70q-19 0 -19 11zM19 768l8 11q0 7 -8 7q6 15 11 15l-3 7v4q0 5 19 18l-4 8q0 5 15 14l-4 8q0 17 19 29l-3 8v3q0 3 41 63q10 0 31 -4l263 26v-3q95 14 243 18q35 -3 35 -11q-4 -7 -4 -11 q35 -8 38 -19v-3l-12 -15q50 -6 50 -15q0 -6 -8 -22q4 -7 4 -11q-23 -76 -61 -133l4 -7v-15q0 -31 -57 -41q0 15 -27 19q0 11 -11 11q-8 -4 -12 -4v4q-7 -4 -11 -4q-63 0 -221 -18v3q-12 -3 -76 -11v4q-31 -7 -137 -15q-34 0 -76 48q-10 0 -27 26q-19 0 -19 8z" />
<glyph unicode="&#x3e;" horiz-adv-x="800" d="M0 997q4 8 4 18l-4 10l4 9l-4 27h9l27 -27h4l-4 9v4q1 9 9 9q1 -9 9 -9v9h9q17 -9 17 -22h27q0 13 9 13q83 -103 349 -182q87 -38 139 -77q51 -55 84 -55q23 -58 23 -68q-5 0 -5 -5q27 -32 27 -104q5 0 5 -5q-5 -8 -5 -18q27 -27 27 -32h-4l4 -9q-185 -137 -514 -433 q0 -13 -54 -59q0 7 -13 14q0 -9 -9 -9q-72 10 -85 22h-5l-13 -9q-9 0 -9 9q5 0 5 5q-18 7 -18 14v9l4 9q-13 0 -13 9l4 27l-9 5l5 9v9l-14 27l5 28q-8 0 -14 27q0 4 5 4l-5 23q0 5 5 14q-5 8 -5 18v5q146 160 327 300l53 50v5q-306 92 -362 205q0 4 -9 36l5 18q-9 0 -9 10 q4 8 4 13q-13 29 -13 41q4 8 4 18q-7 0 -13 32z" />
<glyph unicode="?" horiz-adv-x="900" d="M0 288q0 66 232 356q76 108 180 268q121 192 136 324q-75 -26 -208 -144q0 -8 -24 -24v-4q4 -8 4 -12h-12q-9 0 -16 -4q-48 12 -48 24l-8 -4q-11 11 -52 20q0 9 -44 20q-38 28 -48 28v20q149 207 404 288q16 4 32 4h20q60 0 160 -32q0 -14 96 -28q44 -40 44 -84h-4l4 -8 q0 -223 -340 -672q-9 -17 -140 -188v-4h4q114 64 168 72h12q132 -23 132 -44q32 0 32 -12l8 4h20q24 -2 24 -12v-8q0 -8 -16 -8l4 -8q-42 -51 -64 -68v-4l4 -8q-40 -11 -52 -20v4l-240 -120q-79 -44 -128 -44h-20q-68 0 -232 92q-24 15 -24 40zM276 4q0 19 40 60q0 9 28 24 q0 16 24 32h16q4 0 4 -4q4 0 4 4q101 -22 156 -56l28 4q24 0 32 -24q0 -13 -84 -112q0 -14 -32 -32q-4 0 -4 4l-20 -4q-24 6 -48 24q0 -4 -4 -4q0 8 -52 20q0 12 -8 12q-8 -4 -12 -4q-57 36 -68 36v8q0 4 4 4z" />
<glyph unicode="@" horiz-adv-x="1146" d="M0 723v44q0 143 128 295q166 153 397 153h7q8 0 14 4q7 -4 15 -4q228 0 379 -91q98 -64 138 -200q55 -187 55 -270q0 -194 -157 -328q-40 -18 -69 -18h-7q-146 12 -146 33q-99 -73 -146 -73h-32q-165 12 -179 44q-52 40 -76 156l-19 150l4 7q0 4 -4 11q0 191 237 291 q41 11 51 11q182 -14 182 -40q23 -8 44 -98q16 -14 36 -95q4 0 4 -4v-18q0 -38 22 -73v-11h4q49 48 80 157q7 37 7 73q-18 67 -146 135q-69 33 -142 33h-11q-251 0 -404 -164q-97 -129 -106 -244v-55q16 -96 219 -273q99 -72 284 -135q39 -7 51 -7h4q81 0 196 72q5 19 11 19 q7 -29 19 -29q2 21 25 21q4 -7 4 -11q-4 -7 -4 -10q7 0 7 -15h4q0 17 25 22q2 7 8 7q16 -18 36 -95q4 0 4 -3v-15q0 -3 -4 -3l11 -55q15 0 15 -22v-15q-53 -55 -193 -83q-18 -4 -48 -4q-77 0 -240 36q-208 72 -310 161q-185 176 -222 302q-39 50 -62 324zM470 490 q11 0 11 -3q135 48 200 167q22 44 22 58h-7q-66 -8 -164 -102q-62 -75 -62 -120z" />
<glyph unicode="A" d="M0 1160q47 65 66 70q0 34 150 104q5 0 24 37l13 -9q9 0 16 5l9 -5q114 50 223 50h9q120 0 323 -70q109 -31 158 -108q70 -110 70 -256q0 -188 -108 -573q-37 -160 -49 -306q-17 0 -17 -21q-6 0 -42 -45q-7 0 -24 -29q-8 4 -13 4q0 -8 -8 -8l-21 12q0 -8 -8 -8 q0 10 -33 21q0 6 -17 16q0 -12 -8 -12q-21 12 -21 21h-21q-70 33 -70 49q0 212 -137 405h-8q-4 0 -4 -4q-32 4 -42 8q-8 -4 -12 -4q-8 15 -25 20l-50 -272q-14 0 -16 -25q-13 0 -46 -45q-12 0 -12 -29h-4q-9 0 -9 8l-20 -4h-5q-8 0 -8 8l-8 -4h-4q-3 0 -21 17q0 -5 -4 -5 q-17 13 -17 21h-4q0 -8 -4 -8q-83 33 -87 33q0 6 -29 25q91 545 116 796q0 27 4 42q-4 18 -21 24q-8 -1 -8 -8q-34 21 -79 33q0 6 -37 29zM398 689h4q138 -26 199 -57q41 0 95 -33q15 0 50 198q8 76 8 136v54q-26 247 -112 247q-87 0 -186 -37q-29 -325 -58 -508z" />
<glyph unicode="B" horiz-adv-x="1142" d="M0 1174q38 20 38 48q30 18 38 18v4l-8 13q21 22 143 53q21 0 29 44h9l13 -8h4q0 36 25 57l13 -9q7 5 17 5l4 -9l8 4q24 -12 59 -22l9 5q24 -23 42 -23h59q113 0 321 -75q117 -38 164 -119q38 -45 38 -97q0 -56 -135 -220q92 0 173 -137q34 -75 34 -137v-22 q0 -135 -143 -287q-159 -189 -368 -189h-16q-91 0 -203 35q-10 0 -25 -27q-55 -54 -55 -75v-4h-13v9h-4q-8 -2 -8 -9l-26 13v-9h-4l-51 36q-8 -2 -8 -9q-33 22 -72 31q-13 14 -42 31q0 4 -4 13q0 91 76 397q25 144 55 446q0 4 -5 4q9 77 9 128q-4 0 -4 4l-9 -4 q-15 15 -50 31l-9 -5q-25 6 -25 22h-9q-27 0 -71 36q-13 0 -13 9zM384 274q0 -5 4 -5q26 -9 63 -9q150 0 296 133q31 24 46 141l-4 9v17q0 50 -42 142l-17 13q-101 -44 -139 -44q-47 0 -97 31l-26 4q-37 -261 -84 -432zM485 887h4q88 7 178 79q50 38 50 93q-33 106 -76 106 h-8q-135 0 -135 -27v-79q0 -5 -4 -5q0 -4 4 -4q-9 -58 -9 -123h-4q0 -5 4 -5l-4 -22v-13z" />
<glyph unicode="C" d="M0 439v50q0 278 205 597q255 326 445 326q87 -5 251 -69q96 0 128 -89q0 -16 5 -25q-2 -13 -20 -24q0 -19 -72 -79h-5v-30h-10l-16 10v-10h-15q-10 0 -10 10l-11 -5h-10l-56 35l-10 -5q-42 24 -87 34q-173 -72 -256 -306q-82 -197 -82 -365l5 -10l-5 -10q0 -159 117 -252 h6q281 57 281 99q-5 9 -5 15q5 0 5 5q87 -8 87 -25q62 0 108 -35q20 0 51 -24v15h15q31 -4 31 -15v-25l-123 -143q-194 -89 -333 -89v5l-10 -5q-170 0 -348 99q-160 69 -225 197q-31 95 -31 143z" />
<glyph unicode="D" horiz-adv-x="1142" d="M0 142v22q0 95 148 642q31 182 39 212q0 4 -4 4q9 57 9 107v71q-16 119 -31 119l9 4q9 -1 9 -8q21 4 21 8l-13 23q9 4 13 4l-4 9v4h9q20 -13 35 -13v4l-9 14l4 31q-4 0 -4 4l13 9q0 -9 13 -9q2 0 17 5l74 -27l9 4l48 -31l9 5l30 -22q0 13 9 13h4q24 0 48 -49 q298 -74 388 -141q147 -111 200 -292q18 -57 22 -124q0 -227 -296 -505q-281 -230 -484 -230q0 -5 -100 -9q-21 0 -87 31q-148 50 -148 111zM17 146h5v18h-5v-18zM322 226h5q133 34 379 243q91 142 91 248q0 203 -187 390q-28 13 -96 26q0 -93 -78 -442q-84 -287 -114 -465z " />
<glyph unicode="E" horiz-adv-x="1061" d="M0 256v36q0 120 22 224q0 5 -4 5q27 146 53 434h5q0 5 -5 5q14 98 14 196q-8 0 -72 46q15 9 27 9h13v9q-13 0 -13 9q12 23 18 23q23 0 36 23q-5 8 -5 18q85 19 85 46h4l14 -9q10 0 17 4q18 -3 18 -9q412 43 549 69q0 5 17 9q139 -29 139 -37q12 -12 58 -27h31l22 -5v-22 q-10 0 -18 -5l5 -9v-5q-22 -19 -49 -55q-21 -8 -23 -18q5 -9 5 -14q-104 -36 -424 -59q-129 -11 -129 -23q-13 -219 -31 -343v-4q113 41 125 41q165 -31 165 -55q14 0 35 -9q4 0 27 5q14 -10 22 -10v-18l-18 -4l5 -10v-4q-27 -22 -49 -55q-19 -6 -27 -23q9 -1 9 -9 q-183 -68 -330 -100q-18 -163 -18 -234q0 -91 27 -91q170 0 326 87q71 -5 71 -23q5 0 13 5q48 -10 85 -37q24 0 31 -14l18 10q31 -7 31 -19q0 -7 -18 -18l5 -9q-28 -22 -49 -55q-22 -12 -23 -18q5 -9 5 -14q-160 -96 -388 -96h-80q-127 0 -334 128q-45 53 -45 128z" />
<glyph unicode="F" horiz-adv-x="1079" d="M0 94q26 132 39 266q0 4 -5 4q13 118 39 261q-31 31 -56 38v9q9 0 43 9v4q-17 0 -17 8q11 22 17 22q30 2 30 25q-4 9 -4 13q13 5 13 9q21 165 34 359q-105 37 -133 65q0 8 43 12v5q-17 0 -17 8v9h8l-4 8v5q30 0 43 21h4l-8 13q0 14 68 17q-12 43 -12 51l8 5l13 -9h13v9 l-9 13q5 25 13 25l17 -13q9 5 13 5v12q0 10 5 18q-5 7 -5 17q5 0 5 4q19 0 133 -30q9 -16 56 -26q1 -8 8 -8h4q9 0 9 8q39 0 39 -42q4 -22 8 -22q98 0 361 22q159 -29 159 -52l86 -13v-21q-17 0 -17 -4q4 -9 4 -13q-8 0 -47 -52q-13 0 -22 -17v-12l-266 -22v4q-8 -4 -13 -4 q-22 0 -167 -4l-9 -4l-9 4q-29 -4 -47 -4h-13q-13 0 -34 -296q-4 0 -4 -13h4q149 18 159 22q125 -22 167 -52q28 -8 39 -8h26q17 -9 17 -22q-40 -61 -82 -94q0 -30 -30 -30v5q-8 -5 -13 -5q-21 0 -21 9q-4 0 -4 -4l-30 4q-95 -17 -267 -30q-28 -149 -47 -381 q-18 -111 -30 -120q-6 -18 -39 -43q-30 -35 -30 -51q-9 0 -17 4q-7 -4 -17 -4l-13 9h-4v-9h-5l-47 34v5l-13 -9q-35 21 -81 34q-1 6 -39 30z" />
<glyph unicode="G" d="M0 353l4 8q0 5 -4 13q3 198 118 570q173 472 394 472q66 0 218 -60q110 0 131 -140q0 -52 -55 -98q-43 -62 -59 -72q0 9 -8 9l-13 -9q-40 11 -71 38q-8 -4 -13 -4q-19 0 -33 21l-9 -4h-4q-49 22 -71 47q21 16 29 51h-8q-51 0 -181 -447q-42 -155 -59 -361 q14 -191 51 -191q310 74 310 153q51 134 51 204h-4l-93 -26l4 -8v-4h-42q-18 0 -92 34q-68 25 -122 59v4q20 13 34 13l-8 13l8 13q-4 0 -4 4q46 16 46 30q-8 0 -8 8q20 20 285 81q5 6 97 30q7 -5 16 -5q0 10 21 13q2 -8 9 -8q9 0 17 4q69 -26 75 -26q8 5 13 5q22 -25 63 -39 q23 5 33 5q17 -7 17 -13v-4q-60 -142 -63 -226q-40 -199 -147 -306q-77 -113 -235 -157q-140 -47 -227 -47h-8q-120 0 -336 132q-67 85 -67 221z" />
<glyph unicode="H" horiz-adv-x="1300" d="M0 560q0 3 29 15q0 40 36 40q0 7 12 7v4q-12 0 -12 8q0 18 257 47q37 299 37 466v4l-13 192h8l13 -8q4 8 8 43h8l12 -8h4q10 0 17 51h4l12 -8l20 4q0 -6 69 -23q8 4 13 4q1 -9 73 -44h4q0 12 8 12q29 0 29 -51q4 -68 12 -133q-4 -6 -4 -19q0 -4 4 -4l-4 -20v-59 q-12 -216 -29 -336q5 0 5 -4q145 31 289 55q12 48 45 407q-4 6 -4 19q0 8 4 8l-4 28v82h4q13 -8 20 -8v23l4 20h8l12 -8h4q9 0 17 47h4l20 -4q8 4 12 4l29 -15v-4l8 4h4q33 -5 82 -32q12 0 32 -15h4v11h8q18 0 29 -15q0 -8 -4 -8q4 -69 4 -86q0 -62 -41 -501q-4 0 -4 -4 q10 0 12 -28q-22 0 -28 -262q0 -19 -4 -47q0 -4 4 -4l-4 -23q0 -302 -33 -302l-57 -66q-4 -7 -4 -16h-12v8h-8v-8q-14 0 -29 12q0 -8 -8 -8q0 10 -33 19q0 6 -12 12h-4v-8q-13 0 -41 20q-25 0 -65 31q-12 0 -12 8l16 106q0 4 -4 4l4 39v23q0 4 4 4l-4 8v24q0 4 4 4q0 3 -4 3 l4 40v19q0 77 9 235h-5q-195 -35 -301 -63q-9 -90 -12 -90l4 -7q-4 -22 -4 -32l4 -15h-4q4 -9 8 -44h-4l4 -7v-20q0 -23 -69 -102q-16 -13 -33 -39h-4v8q-16 -6 -16 -12q-17 6 -17 12l-8 -4h-4q-10 9 -45 27l-8 -3q-13 0 -36 19q-8 -4 -13 -4q-45 25 -45 35l-8 -3 q-10 0 -12 15q9 35 20 35q-8 46 -8 110q0 21 4 74h-4q-30 0 -77 -11q-48 0 -90 31q-8 -4 -12 -4q-21 16 -73 31q-8 10 -41 28z" />
<glyph unicode="I" horiz-adv-x="400" d="M0 91q0 28 39 429v56q0 4 4 4l-4 9q0 18 4 48q0 4 -4 4l4 22v225q0 4 4 4q0 4 -4 4q4 44 4 65v191q0 15 -4 39l4 8q-4 40 -8 135h4l17 -9q3 9 9 48h8l13 -9h13v4q2 48 8 48q23 -4 26 -4q8 4 13 4q23 -15 94 -30q11 -14 69 -39q0 13 8 13h4q30 0 30 -57q5 -12 5 -65v-77 q0 -10 4 -18q-4 -8 -4 -13q4 -38 4 -43q-4 -8 -4 -13q0 -4 4 -4l-4 -22q0 -668 -39 -810q0 -4 4 -4l-8 -74q0 -4 4 -4q-3 -56 -21 -56q0 -19 -34 -44q0 -13 -30 -34q0 -22 -9 -22q0 9 -9 9l-12 -9l-18 9q-8 -5 -12 -5q0 10 -48 35l-8 -4q-10 0 -39 21q-59 12 -60 35l-8 -4 q-8 4 -13 4z" />
<glyph unicode="J" horiz-adv-x="800" d="M0 221l8 4l24 -4q8 4 12 4l-16 23q8 0 8 10l-4 9q4 0 4 4q16 -7 16 -13l8 4l24 -14v10q-16 0 -16 13v14l8 14q-8 0 -8 9l4 9q127 -26 156 -55q24 -7 24 -14l20 5h4l96 -51h32q7 0 20 65l-4 9q24 141 32 349q0 5 -4 5l4 23v216q0 5 4 5q-4 9 -4 14q0 4 4 13l-4 28 q0 5 4 14l-4 27v14q0 5 4 5q-4 9 -4 14q0 4 4 13l-4 19q10 294 36 294q6 0 28 46l16 -14q4 34 16 60q64 -4 64 -23h12q34 0 76 -32q9 0 40 -19v14q32 -3 32 -23q-24 -99 -24 -299v-18q0 -5 -4 -5l4 -9v-4q0 -16 -4 -23l4 -28v-18q0 -20 -4 -51q0 -5 4 -5l-4 -23v-128 q0 -401 -64 -584l-88 -125q-35 -18 -72 -18q-148 0 -440 156q-75 52 -80 65z" />
<glyph unicode="K" d="M0 584l29 12q-4 8 -4 12l16 20h25l4 20q-4 8 -4 12q15 12 32 12v4l50 324q0 4 -4 4q12 45 37 320q6 20 12 20l12 -8l12 48q8 -8 25 -8q11 48 21 48q1 -8 8 -8q9 0 16 4q87 -25 115 -40q0 -6 41 -16q1 -8 8 -8q0 12 8 12h9q18 -9 20 -20q-12 -67 -29 -220h5 q-13 -94 -21 -120q0 -4 4 -4q0 -5 -41 -268h4q157 137 238 276q73 103 111 232q0 24 33 40q0 21 12 32q6 -4 21 -4q7 29 16 44q70 -8 70 -20q44 0 86 -28q17 0 37 -16q0 4 4 12q33 -3 33 -20q-41 -194 -287 -492q-75 -94 -226 -236q164 -50 459 -300q62 -72 62 -112 q0 -45 -82 -120q0 -21 -12 -24l-13 8q-8 -1 -8 -8q-35 10 -49 24l-8 -4q0 5 -21 20q0 -8 -8 -8q-32 20 -66 28q-30 24 -45 24v4q0 4 8 32v16q0 43 -123 152q-224 164 -250 164q-57 -7 -57 -36q0 -23 -9 -44h5q0 -82 -58 -128l-41 -52q0 8 -8 8l-12 -8l-17 8q-8 -4 -12 -4 q-12 19 -78 36q0 5 -58 24q0 7 -32 24l32 188q0 9 9 60q-66 35 -66 56z" />
<glyph unicode="L" horiz-adv-x="1128" d="M0 112v10q0 19 84 341q106 526 106 673l-4 9q9 21 9 75v24q0 65 -27 65v5q0 9 13 9l31 -5v15q-17 0 -17 9q1 9 8 9l-4 10q1 9 9 9q5 0 35 -14h5v5h-9v18l9 14q-9 0 -9 10q1 9 9 9h13q155 -26 155 -51q97 -10 97 -33q9 -48 9 -66q0 -322 -159 -986q-5 0 -5 -5q67 5 97 5 h151q209 0 398 -80q106 -18 106 -65v-9q-7 0 -66 -75q-18 -11 -22 -42l-23 -5h-22q-57 0 -66 23q-24 0 -31 14l-9 -4q-57 42 -177 42l-22 -5q-5 0 -13 5q-144 -10 -221 -10l-22 -4v4l-9 -4h-40l-22 -5v5q-89 -19 -89 -52l-13 -9l-13 9q0 -9 -9 -9l-62 28q-62 17 -62 33 l-9 -5q-61 25 -61 42l-9 -4q-7 0 -18 18z" />
<glyph unicode="M" horiz-adv-x="1300" d="M0 143q11 16 17 47l-4 28v39q0 41 64 373l-4 8q8 37 55 558q9 60 17 60h4l9 -4q7 43 17 43l17 -12q9 0 17 52h4q22 0 22 -8l8 4l77 -24l9 4h4q33 -28 60 -28q1 -7 8 -7q24 4 34 4q12 -2 17 -20l-4 -8q21 -35 34 -119q94 -287 171 -396q74 86 196 428l68 174q28 24 39 51 l8 4h5l8 -4q18 44 30 44q17 -3 17 -8l9 4h4q8 -1 8 -8l9 4q24 -11 60 -20l8 4q8 -7 47 -27q8 3 13 3q0 -5 13 -11q23 4 38 4q13 -9 17 -72q0 -4 -4 -4q8 -52 8 -158q0 -9 5 -16q0 -4 -5 -4q0 -9 5 -16q4 -137 4 -214v-127l-4 -23q0 -4 4 -4q0 -4 -4 -12q-5 -310 -13 -448h-4 q0 -4 4 -4q-9 -91 -17 -130v-40q0 -2 -81 -87q0 -16 -9 -16q0 8 -8 8q-9 -1 -9 -8l-17 8q-8 -4 -13 -4q0 5 -21 20q-8 -4 -13 -4l-13 16l-8 -4q-15 0 -39 19l-8 -4q-45 18 -77 44l4 28l-4 8q26 66 34 582q-163 -190 -217 -190h-52q-111 14 -277 111q0 6 -17 12 q-5 -79 -17 -115q0 -4 4 -4q-47 -210 -47 -266v-4l5 -19h-5l5 -8v-16q0 -26 -9 -56q4 -34 4 -59q-9 0 -25 -28q-4 0 -56 -55v-12h-4l-13 8h-4q0 -4 -4 -12q-17 4 -17 16h-5v-8h-8q-6 0 -22 20l-8 -4h-4q0 9 -17 16q0 -8 -9 -8l-4 8l-9 -4q-10 0 -13 15h-8q-24 0 -81 36 l-4 24h4z" />
<glyph unicode="N" horiz-adv-x="1200" d="M0 104l56 516q0 5 -4 5q12 110 24 429q0 5 -4 5l4 23v113q0 4 4 4q-4 9 -4 14q0 4 4 36q0 5 -4 5q0 72 32 81q9 41 20 41l16 -14q4 41 16 59q21 0 80 -23q30 0 72 -31q12 0 36 -18v9h28q8 -2 8 -9q-16 -61 -16 -209v-18q2 -12 28 -27q0 14 8 14q33 0 60 -113 q215 -599 348 -734q47 173 68 408q0 4 -4 4l4 23v50q0 4 4 4q-4 9 -4 14l4 18l-4 9l4 23q-4 38 -4 58h4l-4 9q0 69 -16 195h4l20 -4q0 4 4 4l-4 18q4 27 12 27q0 -3 12 -13l8 4l8 -4v50l4 9q68 -8 68 -23q42 0 84 -32q15 0 36 -22q4 8 4 13h4q32 0 32 -31q16 -111 16 -277 v-31q0 -5 -4 -5q0 -4 4 -4l-4 -23q0 -225 -80 -507q-84 -138 -132 -181q-31 -13 -40 -13h-56q-214 65 -360 217q-101 131 -160 290q-7 0 -24 -163l4 -9q-8 -12 -32 -254q-6 0 -28 -41q-31 -27 -52 -72l-4 9l-20 -4h-4q-8 0 -8 13h-4v-9h-8q-40 27 -40 36h-8v-9q-6 0 -48 23 q-17 0 -68 45z" />
<glyph unicode="O" horiz-adv-x="1241" d="M0 664l4 21v25q0 284 276 580q114 126 191 126q163 -26 163 -50q109 0 109 -76q297 -85 335 -143q136 -121 136 -382v-17q0 -253 -342 -609q-146 -139 -292 -139q-136 0 -366 155q-122 126 -160 257q-54 173 -54 252zM296 652q0 -50 24 -132h-4q41 -149 100 -228 q9 -39 96 -112q76 0 236 124q204 197 204 404v12q0 4 4 4l-4 8v16q0 183 -128 308q-60 4 -104 32q0 2 -40 12q-10 -28 -20 -28h-4l-8 4q0 -8 -8 -8q-16 6 -16 12l-8 -4h-4l-20 16l-8 -4l-12 16q-8 -4 -12 -4q-14 0 -36 20q-8 -4 -12 -4v4q-109 -83 -140 -164 q-65 -121 -76 -236q4 0 4 -4q-4 0 -4 -4q4 0 4 -4h-4l4 -8l-4 -28q4 -8 4 -12q-4 0 -4 -4h4q0 -4 -4 -4z" />
<glyph unicode="P" horiz-adv-x="1400" d="M0 908v4q80 155 266 319q59 40 59 77l8 4h4l12 -9h4v14q0 16 15 40q42 -4 67 -18q171 90 345 90q131 0 364 -90q227 -99 227 -256q-13 -65 -51 -135q-147 -211 -188 -211q-118 -100 -431 -207q-142 -36 -157 -45q-7 -111 -15 -143h4q-8 -32 -36 -234l-70 -95v-13h-12v9 q-9 -9 -15 -9q-24 0 -44 22q-7 -4 -11 -4q0 7 -47 27v9l-20 -5q-52 34 -66 50q50 368 50 458v5l-7 13q9 13 15 36q0 5 -4 5q16 154 16 287q-8 -1 -70 -94h-4v9h-4l-12 -9q-16 3 -16 9l-8 -5h-3l-20 18l-8 -4q-2 12 -19 22l-4 -9q-28 9 -28 23h-8q-26 0 -62 36q-16 0 -16 9z M564 732h4q64 0 356 153q149 88 149 158q6 0 8 40q0 68 -86 139q-73 9 -102 9q-134 0 -317 -85l-4 -9v-103q0 -156 -8 -302z" />
<glyph unicode="Q" d="M0 448v85q0 5 4 5l-4 8q34 197 75 294q86 263 223 436q139 149 250 149h31q61 0 215 -60q4 0 4 5q34 -6 79 -30v-26q-10 0 -17 -4l4 -9q-48 -54 -70 -68v-4q4 -9 4 -13h-13l-9 4l-4 -8q-14 8 -22 8q-8 -4 -13 -4q-15 21 -48 21q-71 0 -163 -89q-206 -414 -206 -687l5 -22 h-5q14 -122 57 -183q62 19 180 102q-17 37 -57 192q4 0 4 5q-4 0 -4 4l9 4h4l13 -8q7 51 18 51l17 -13q8 0 18 56q44 -5 44 -13l9 4q17 -2 17 -13q44 -1 44 -8l9 4q7 -4 17 -4q0 17 5 17l-5 8q35 132 35 248q-9 204 -70 204h-4v13h13q10 0 18 -4q7 4 17 4l-22 17v9h9l-4 8 q1 9 8 9q10 0 44 -17v8q-13 0 -13 9v8l9 13l-9 13q0 9 13 9q140 -25 184 -56l27 -4l9 4q47 0 78 -77q0 -20 14 -72q0 -4 -5 -4l5 -30v-56q0 -9 4 -17q0 -94 -61 -345q-42 -88 -123 -184v-8q39 -80 127 -214v-8l-57 -64q0 -13 -31 -26l5 -8v-5q-3 -10 -31 -21q0 9 -9 9 l-13 -9q-38 11 -53 26l-8 -5q0 11 -53 22q0 6 -13 12q-9 -4 -13 -4q-75 43 -75 47q22 14 22 17q-6 14 -18 26q-129 -86 -228 -86q-131 0 -346 128q-101 71 -101 265z" />
<glyph unicode="R" horiz-adv-x="1200" d="M0 1160v9q16 0 40 48q86 82 94 84q126 76 160 79q13 40 18 40h5q9 -9 58 -13q91 22 178 22q115 0 352 -79q182 -59 259 -194q14 -30 14 -49v-35q0 -5 4 -5q-18 -80 -201 -282q-240 -205 -321 -220v-9q129 -57 375 -287q55 -53 62 -106q-3 -26 -89 -110q0 -35 -62 -35 q-48 0 -76 22q-44 13 -125 53l-36 26l9 4h5q4 0 4 -4q18 9 27 9v4q-14 0 -14 9q0 16 23 31q-91 121 -237 225q-47 37 -80 57h-9q-18 -122 -18 -181v-26q0 -43 18 -124v-8q-13 -13 -18 -36q-13 0 -49 -48q-18 0 -18 -13q5 -8 5 -18h-9l-13 9q0 -9 -9 -9l-23 13q0 -9 -9 -9 q-3 0 -22 22l-9 -4h-4q0 10 -18 18q0 -9 -9 -9q0 9 -9 9q0 -5 -4 -5q-7 15 -81 40q0 9 -31 22l-4 9v31q0 22 -9 22q0 4 4 4l-9 88l5 9q0 5 -5 13q14 155 116 786q-4 13 -9 13q-8 -5 -13 -5q-4 13 -49 31q-9 -4 -14 -4q-31 20 -31 26q-8 -4 -13 -4q-51 24 -76 44zM482 750h4 q122 41 317 216q49 63 49 115q-60 154 -138 154h-40q-125 0 -125 -35q-5 -43 -9 -49h4z" />
<glyph unicode="S" d="M0 449q9 0 9 8q-9 0 -9 9v13h14q18 -8 18 -13q22 9 42 9q12 -22 37 -22q0 13 9 13h4q11 0 157 -149q93 -53 143 -53q281 0 378 163q18 7 42 79q-96 84 -286 110l-263 44q-79 28 -111 88q-24 29 -50 237q0 49 -5 49l5 9q0 8 -5 8q0 204 300 317q145 43 221 44 q239 0 272 -84l37 -110q0 -4 -5 -4l5 -9q0 -4 -5 -4q0 -20 33 -84q0 -17 -5 -17l-9 -5q0 9 -9 9l-19 -4q-34 8 -46 8q-9 -4 -14 -4q0 7 -32 18q0 -7 -14 -14q-26 36 -41 36q-87 0 -272 -71q-77 -37 -157 -136l-19 -35q183 -31 374 -71q164 -39 235 -136q41 -52 83 -238 q23 -48 23 -114q0 -122 -129 -242q-100 -101 -346 -101q-283 18 -318 53q-78 22 -189 158q-29 5 -60 71l5 30l-10 5l5 9v8q-9 14 -14 31q5 8 5 18l-9 13v4q0 5 4 5q-4 10 -9 44z" />
<glyph unicode="T" horiz-adv-x="1200" d="M0 1169q0 9 44 14v5q-20 0 -20 9q9 29 16 29h20q0 8 12 23q-8 0 -8 10q0 7 12 14h16q46 0 424 95q289 57 408 57h28q56 0 152 -38q4 -14 100 -38v-19q-48 -76 -76 -100q4 -9 4 -14q-33 -27 -92 -52l-16 5q-7 -5 -16 -5l-4 9l-8 -4h-8q-10 10 -44 33q-4 0 -4 -5 q-28 3 -28 10q-152 -21 -152 -34q-28 -269 -116 -845q-5 -86 -12 -86q0 -4 4 -4q-8 -38 -8 -81v-33q-17 -20 -20 -38q-14 0 -40 -53q-16 0 -16 -33h-12v10h-8v-10q-41 0 -52 29l-8 -5h-4q0 12 -16 14l-8 -5q-52 34 -64 34q-29 28 -48 33q0 136 112 855q12 75 12 157 q-173 -48 -244 -48q-42 0 -96 38q-92 35 -96 57q-20 0 -20 10z" />
<glyph unicode="U" d="M0 892h4q0 4 -4 4q0 3 4 33q0 12 -4 28q4 36 4 62v33l4 25q0 4 -4 4l4 20q0 31 8 189h4q0 4 -4 4q0 45 21 45h4v21q2 25 12 25l12 -9h4q0 54 21 54q13 0 20 4q37 -5 37 -12l8 4h41q31 -15 65 -21v-4l9 4l8 -4q0 12 8 12h4q14 0 29 -12l-17 -181q0 -4 4 -4l-4 -20v-37 q0 -4 -4 -4q0 -5 4 -5l-4 -41v-164q0 -4 -4 -4q4 -8 4 -12q0 -333 110 -613q58 -111 151 -143q70 30 107 135q32 56 69 255q41 230 41 398h4q0 5 -4 5l4 20v45l-4 21h4l-4 8q0 4 4 4q-3 9 -8 45q0 5 4 5q-25 167 -45 205l8 4l21 -4v12q0 8 -9 8l4 25h13q8 -1 8 -8q12 4 12 8 l-4 17l4 8q-4 7 -4 16q1 8 8 8h4q4 0 4 -4l9 4h40q9 -1 9 -8q2 0 16 4l20 -4q8 4 13 4q30 -15 77 -24q0 -4 4 -4q0 12 8 12h21q44 -21 57 -316q0 -173 -20 -276q0 -4 4 -4q-29 -213 -70 -366q-43 -119 -118 -258q-88 -169 -213 -169l-36 -4q-8 4 -13 4l-8 -4q-82 0 -330 86 q-112 58 -156 161q-85 224 -85 328q-25 141 -25 247v41z" />
<glyph unicode="V" d="M0 1307q4 8 4 22h17l9 -4q0 48 12 48h5l17 -13q0 21 8 21l-4 9v9q0 6 17 17l21 -4q8 4 13 4l30 -17v-5l8 5q26 0 119 -48h4q2 9 9 9h4q26 0 26 -18q-5 -23 -5 -26q30 -83 90 -612q3 0 17 -96h4q0 65 280 552l64 100l-17 21q0 8 26 22q0 30 34 44h12q0 4 5 4l-5 9v8 q0 11 34 22l5 -9l17 5l80 -26q9 4 13 4q0 -14 64 -39l21 4h4q30 0 30 -22q-21 -63 -170 -308q-147 -232 -382 -890q-57 -63 -90 -109h-4l-8 4l-9 -4q-13 0 -89 35q-149 52 -149 113q-64 263 -132 768h5q-34 296 -64 391z" />
<glyph unicode="W" horiz-adv-x="1400" d="M0 348v12q0 5 4 5q0 4 -4 4q16 183 45 365h4l-4 8q60 456 97 602l16 -8q6 51 16 51q0 -7 16 -17q15 55 21 55l20 -4q8 4 12 4q1 -8 8 -8h21v-13h16l24 -4q8 4 12 4q30 -34 57 -34q1 -9 8 -9h4q8 0 8 9q33 0 33 -17q-65 -379 -134 -920q4 0 4 -5q-4 0 -4 -4h8 q34 70 182 331q75 154 183 284l36 42q15 0 89 -21q22 0 69 -29q20 -2 20 -13l29 4h12q6 0 12 -13q-28 -180 -28 -284h-4l4 -8q-4 -38 -4 -47q0 -4 4 -4l-4 -21v-64q0 -4 4 -4q0 -4 -4 -4l4 -30v-4l-4 -9q4 0 4 -4h-4l4 -9v-8q0 -4 -4 -4q4 -9 4 -13h8q0 4 -4 4 q182 487 182 607l-4 8v13q0 88 -57 123q8 4 13 4l16 -4q8 4 12 4v4l-16 17l8 13q-4 0 -4 4q8 5 12 5q20 -13 32 -13h4v4q-16 0 -16 13l12 21q-8 0 -8 8q1 9 8 9q134 -24 162 -51l29 -8l8 4q69 0 85 -140q0 -55 -8 -85h4q-61 -257 -247 -755q-39 -92 -114 -178 q-42 -64 -73 -64q-89 0 -251 106q-77 122 -77 204q-5 0 -12 76q-12 -8 -154 -263q-130 -182 -166 -182h-20q-134 38 -219 102q-57 63 -57 246z" />
<glyph unicode="X" d="M0 139q14 67 153 225q177 240 177 260q-56 148 -107 610q0 49 -14 87v4h14q9 -1 9 -8q14 4 14 8q-9 14 -9 22l9 4l-4 9q1 9 9 9l19 -13h18l-5 8l5 26q-5 9 -5 13q10 0 10 9q16 0 111 -26q19 0 93 -39q25 4 42 4q25 0 37 -212q4 0 14 -108h9q89 164 154 320q28 0 28 31 l14 13q1 -9 9 -9h5q1 19 27 52q24 0 24 -9q4 0 4 5l89 -26l9 4q34 -26 70 -30q0 -7 18 -18q5 9 5 13h23q7 0 14 -13v-4q-55 -189 -414 -732q84 -253 275 -455q6 0 55 -52v-17q-10 0 -18 -4l4 -9v-4q-32 -23 -51 -52q-21 -9 -23 -18q5 -8 5 -13l-10 -4h-9q-5 0 -5 4l-9 -4 q-36 0 -237 87q0 4 -28 21v5q14 0 14 4q-162 173 -172 217q-33 -26 -107 -139q24 0 24 -17l-89 -104q0 -18 -46 -35l-9 4q-9 -4 -14 -4q-42 13 -61 26q0 -4 -4 -4q-5 8 -5 13h-19q-33 0 -37 21h-9q-30 0 -93 44z" />
<glyph unicode="Y" horiz-adv-x="1056" d="M0 1196q0 4 4 4l-4 30v25l4 9q-4 0 -4 4h4q0 4 -4 4q0 55 33 72q8 34 16 34h4q8 0 8 -12q6 0 21 51l8 4q20 0 20 -9l8 5q21 0 21 -9l8 4h4q0 -12 4 -12q47 0 66 -17q6 -7 44 -22q0 -4 17 -4v4h24l13 -8q-17 -43 -17 -94l4 -8q-4 -8 -4 -13l4 -21h-4l17 -107q-5 0 -5 -4 q5 0 5 -4h-5q36 -214 94 -268q151 60 151 102l119 323q7 23 41 64q0 13 16 21l8 -4q2 21 33 47l118 -26q25 -18 66 -34h28q36 0 41 -51q-11 -113 -106 -280q0 -7 -82 -120q-81 -248 -220 -702q-28 -85 -66 -110q0 -7 -45 -64q0 9 -8 9q-8 -2 -8 -9q-36 11 -49 26l-8 -5 q-6 0 -16 17l-9 -4q-67 34 -81 34l-37 30l167 532h-4q-107 0 -318 132q-75 65 -114 255q-5 41 -13 81h4z" />
<glyph unicode="Z" horiz-adv-x="1124" d="M0 103q0 169 218 452q139 202 244 325q211 237 259 324v5h-5q-305 -42 -335 -42h-18q-43 0 -127 42l-86 38q0 5 -28 23v10h37q9 0 9 9q-18 0 -18 9v10h9l-5 9q2 10 9 10q9 -5 14 -5q13 3 22 28q-4 8 -4 19l18 5v-5l9 5q31 0 349 42h113q103 0 277 -71q109 -17 109 -75 q0 -104 -386 -531q-209 -274 -285 -410h4q52 0 118 5q255 0 499 -94q95 -18 95 -66q0 -32 -86 -118q0 -21 -18 -32q0 9 -9 9l-14 -9q-18 7 -18 14l-9 -5h-5q-2 0 -22 19l-9 -5q0 7 -18 19l-10 -5q-7 0 -45 24q-59 14 -59 33q-100 9 -145 9q-103 0 -168 -19v5 q-164 -45 -235 -113q0 9 -9 9l-14 -9q-15 9 -23 9q-8 -4 -13 -4q0 20 -82 42q0 14 -13 14q-9 -5 -14 -5l-72 47h-5z" />
<glyph unicode="[" horiz-adv-x="758" />
<glyph unicode="\" horiz-adv-x="569" />
<glyph unicode="]" horiz-adv-x="758" />
<glyph unicode="^" horiz-adv-x="1014" />
<glyph unicode="_" horiz-adv-x="1200" d="M0 -16q77 13 135 16q43 0 122 -3q130 3 193 3l103 -3q33 3 55 3q16 0 427 -29q59 -3 74 -3q3 -6 3 -10h36q15 -19 35 -87h3l-3 -16v-9l6 -23q-3 -6 -3 -9q19 -12 19 -29q0 -5 -9 -10q-8 0 -13 3q-3 0 -3 -3l-32 3h-29q-174 16 -376 26q0 3 -23 3q-19 0 -51 -3 q-19 0 -106 3q-169 -3 -197 -3q-83 3 -112 3q-109 -13 -138 -13h-7l-9 7h-23q-16 0 -16 6l-6 -3h-16q-7 0 -7 6l3 7q-14 0 -19 29q0 3 3 9q-3 28 -13 45l4 20q-6 0 -10 19q3 6 3 13l-3 6l3 7z" />
<glyph unicode="`" horiz-adv-x="1024" />
<glyph unicode="a" d="M0 291q4 6 4 15v3q0 12 -4 12q14 180 49 279q57 171 169 298q87 127 194 127q45 0 190 -52q64 0 113 -93q0 -5 14 -8q7 4 10 4q19 -20 64 -37q1 7 7 7h3q36 0 36 -71q-5 -67 -7 -78q3 -38 3 -60v-123q0 -18 4 -56h-4l4 -7q0 -67 28 -142h3l11 8q36 0 60 -19q37 0 56 -15 q12 -10 42 -18q0 -4 4 -4l21 4h3q5 0 11 -12v-3q-39 -59 -67 -79l4 -7v-4q-39 -33 -117 -33q-95 0 -253 108q0 5 -11 11q-163 -246 -313 -246h-11q-74 0 -197 67q-84 44 -105 112q-14 40 -14 71v26q0 8 -4 15zM261 280q0 -59 28 -101q111 41 225 279q53 141 70 235l-10 79h3 q-6 17 -14 18q0 -7 -7 -7l-3 7l-7 -4q-9 0 -11 15h-17q-64 36 -64 41q-73 -36 -127 -190q-66 -159 -66 -339v-33z" />
<glyph unicode="b" horiz-adv-x="995" d="M0 123l9 5h25v4l-8 14q3 27 8 27q0 5 -4 5l4 23v68q0 52 9 306h4q0 5 -4 5l4 41q0 20 5 201h4q-4 8 -4 13q0 4 4 37q0 4 -4 4l4 23v361q0 100 34 100q4 41 17 41l18 -13q9 59 25 59l13 -9l22 4l30 -18v-4l8 4h5q48 -9 107 -45q23 4 39 4q6 0 13 -14v-9q-18 -18 -18 -141 v-41q0 -11 5 -19q-5 -8 -5 -18l5 -27l-5 -28q0 -4 5 -4l-5 -23v-46q0 -13 5 -13l-5 -23v-114h5q110 68 223 68q79 0 232 -64q101 0 142 -123q4 -57 4 -68q0 -218 -176 -407q-58 -79 -155 -141q-177 -114 -352 -114v4l-21 -18l-13 9q0 -9 -9 -9q-14 9 -21 9q-9 -4 -13 -4 q0 12 -43 22q-37 26 -82 37l-64 36q-26 18 -26 23zM369 260q79 34 202 128q36 36 60 110q18 44 30 150q-4 9 -4 14t4 14l-8 41q-97 -14 -202 -119q-82 -178 -82 -324v-14z" />
<glyph unicode="c" horiz-adv-x="905" d="M0 333v10q0 304 309 615q114 80 211 80q75 0 207 -61q111 -11 111 -75v-10q0 -16 -58 -84q-22 -20 -35 -52h-4l-14 10q0 -10 -9 -10h-8q-9 0 -9 10l-9 -5h-4q-11 10 -49 33q-8 -5 -13 -5q-2 8 -35 24q-48 0 -133 -71q-49 -44 -114 -244q-18 -77 -18 -113v-33 q0 -97 49 -145q168 14 269 47q138 -32 185 -71l9 5h35q6 0 13 -14v-14l-18 -5l5 -9v-5q-27 -23 -49 -56q-20 -10 -22 -19q5 -8 5 -19q-196 -47 -304 -47h-23q-146 0 -308 89q-172 70 -172 244z" />
<glyph unicode="d" d="M0 303v67q0 156 71 311q161 279 353 279h8q70 0 188 -33v4q71 293 133 382q86 108 98 108q142 -26 142 -46q26 -5 35 -12h28q27 0 27 -29q0 -64 -149 -478q-130 -297 -130 -349q-23 -124 -23 -200v-41q21 -133 59 -133l23 4q16 -6 16 -12v-9q0 -8 -16 -8l4 -8v-4 q-18 -18 -43 -50q-19 -11 -20 -17q4 -7 4 -17l-27 -4h-12q-62 0 -224 96q-23 25 -23 33q-100 -137 -181 -137h-27q-58 0 -228 96q-86 61 -86 207zM286 316l12 -79h4q175 209 243 386q8 42 36 154q-28 0 -28 4q-75 0 -188 -83q-51 -85 -79 -287q0 -4 4 -4l-4 -21v-41l4 -29 h-4z" />
<glyph unicode="e" horiz-adv-x="909" d="M0 461q0 193 183 372q152 155 245 167q65 25 104 25h17q82 0 199 -53q112 0 112 -114q0 -109 -124 -241q-101 -135 -225 -172q-37 -12 -75 -16l-8 4l-8 -4q-14 0 -88 32q-3 0 -24 5v-5q0 -176 137 -281q116 19 199 85q71 -5 71 -20q48 0 91 -29q21 0 21 -12q11 0 25 8 q29 -7 29 -16v-4q-62 -82 -79 -82l4 -20q-135 -90 -245 -90q-174 0 -428 155q-133 107 -133 306zM337 617h4q108 28 178 110q30 58 30 86q-212 -108 -212 -196z" />
<glyph unicode="f" horiz-adv-x="900" d="M0 796l8 4l15 -4q8 4 12 4l-12 20l16 19q6 0 12 -11l8 4l7 -4l-3 19q1 8 7 8l-4 8v8l4 7q10 0 102 -23v4q0 187 63 359q141 203 226 203h24q67 -1 188 -51q88 0 164 -105q26 -36 35 -94l-4 -19l4 -16q0 -56 -55 -101q0 -7 -39 -55h-8q-4 0 -4 4q-7 -4 -11 -4q-20 0 -20 8 l-8 -4l-43 27l-8 -4h-3q-30 20 -71 31l-39 32q16 0 20 70q0 40 -28 98q-66 -10 -94 -313q0 -4 4 -4q-7 -38 -7 -113v-4q0 -4 -4 -4q0 -4 4 -4q-4 -39 -4 -58q0 -31 43 -31q9 -8 191 -67v-23h-4l-8 4q0 -4 -3 -4l3 -8v-4q-18 -16 -43 -47q-17 -7 -19 -15q4 -7 4 -16h-4l-20 4 l-4 -8l-132 43q0 -12 -4 -12l7 -105q-3 0 -3 -4q3 0 3 -4h-3q3 -7 3 -12q0 -63 24 -335q-9 0 -16 -4l4 -8q-17 -14 -47 -51q-15 0 -15 -31h-12v8q-10 -8 -16 -8l-15 8q-8 -4 -12 -4l-16 19l-8 -3q-15 11 -23 11q0 -4 -4 -4l-23 16v4h-20q-75 37 -78 58v4q0 8 12 8 q-28 240 -28 465v11q0 9 -4 16q4 7 4 16v4q0 8 -4 15q4 7 4 16l-4 15q4 0 4 4q-132 68 -168 117z" />
<glyph unicode="g" horiz-adv-x="1000" d="M0 386v68q0 251 236 468q117 98 236 98h60q94 0 228 -55q132 -27 132 -103l20 -12q0 4 4 12q31 0 48 -34v-17q-11 -11 -16 -68h4q-4 -21 -8 -21q0 -4 4 -4l-8 -73q0 -4 4 -4q0 -129 -88 -630l4 -8q-7 -14 -20 -115h-4q0 -5 4 -5q-20 -113 -72 -153q-51 -85 -92 -85v4 q-8 -4 -12 -4q-124 0 -456 179q-23 0 -80 51q4 0 4 4l20 -4h20v8q-16 0 -16 13q5 21 12 21q11 0 36 -12v4l-12 17l12 17h-8v17q56 0 220 -60q16 0 120 -51q12 39 56 332h-8q-139 -106 -244 -106q-94 0 -284 128q-56 76 -56 183zM292 424q10 -119 28 -132q239 132 312 332 q16 56 16 85l-60 39q-8 4 -12 4v13q22 32 24 68q-111 0 -240 -120q-68 -129 -68 -276l4 -9q0 -4 -4 -4z" />
<glyph unicode="h" horiz-adv-x="1000" d="M0 99v13q0 166 168 981q20 113 36 237q-4 8 -4 13l8 4l16 -8l4 17q-4 8 -4 13q8 0 8 17h8l16 -13q10 14 12 39q-4 8 -4 13q4 0 4 4q148 -26 148 -47l44 -18q1 9 8 9h4q22 0 28 -17q0 -66 -88 -517q128 147 184 147q156 -28 156 -48q96 -17 96 -30q60 -45 60 -237l4 -8 q-4 -8 -4 -17v-69q0 -5 -4 -5q0 -4 4 -4q-12 -134 -12 -206h-4q0 -5 4 -5l-4 -43q0 -146 36 -146q3 0 24 4q16 -8 24 -8v-22q-9 0 -16 -4l4 -9q-60 -69 -64 -69q4 -7 4 -17l-44 -9v5q-4 0 -4 -5q-46 0 -208 87q-28 19 -44 55q0 5 4 5q-10 39 -12 39l4 21q-4 38 -4 47h4 q0 5 -4 5q16 258 16 327v60q0 4 4 4q-4 8 -4 18h-8q-121 -178 -192 -332q-40 -89 -100 -258q-36 -37 -88 -112h-8q-4 0 -4 4l-8 -4q-34 0 -192 86z" />
<glyph unicode="i" horiz-adv-x="652" d="M0 215q0 141 129 703q41 57 53 57q16 29 31 39l110 -27l57 -31l26 4h12q7 -1 7 -8v-11q-21 0 -64 -238q-61 -265 -84 -450l4 -7q-4 -7 -4 -16q0 -12 12 -57q132 24 132 57h4l12 -7q8 0 15 4q30 -7 30 -20l8 4h4q63 -14 68 -31l7 4h4q17 -15 27 -15q1 8 7 8l27 -4v-19 q0 -3 -57 -70l-27 -34q-44 -46 -186 -46h-15q-8 0 -15 -4q-124 0 -304 115q-30 28 -30 100zM197 1187v3q11 15 23 100h8l11 -7q0 46 12 46l15 -12h7q4 50 16 50l11 -8q8 0 15 4q35 -15 87 -27q0 -6 61 -30q1 7 8 7h4q22 0 22 -15q0 -104 -60 -150q-24 -27 -31 -50h-11v8 l-12 -8h-7q-8 0 -8 8l-7 -4h-4l-46 31q0 -8 -7 -8q-25 12 -31 23l-7 -4h-4q-25 9 -65 43z" />
<glyph unicode="j" horiz-adv-x="700" d="M-20 -61q1 8 8 8l15 -8q8 4 12 4v8l-8 13q3 24 8 24q25 -16 35 -16v4l-8 12v8l8 12q-8 0 -8 9q2 8 8 8h4q9 0 16 -4l8 4q6 0 74 -25q7 4 12 4q17 -21 58 -32v-4l27 4q18 0 79 -49l46 175l-3 8q11 37 15 94l-4 8q8 25 8 33q-4 6 -4 20h4q0 4 -4 4l4 20v13q0 9 -4 16l4 8 q-5 68 -8 73q0 5 4 5q-9 153 -23 224q0 4 4 4q-12 75 -20 203q5 94 31 94q9 33 32 33q24 44 31 44l12 -8q2 0 15 4q65 -24 70 -24q8 4 12 4q0 -7 31 -29l8 4l28 -16q1 8 7 8h8q28 0 28 -28q-24 -26 -24 -69l4 -25h-4l4 -8v-20q0 -15 8 -70h-4l16 -97l-4 -9l15 -122h-4l4 -8 v-41l4 -8q-4 0 -4 -4q4 0 4 -4q-4 0 -4 -4q4 0 4 -4h-4l4 -8v-16l4 -41h-4l4 -8v-57q0 -4 4 -4q-15 -176 -23 -176l3 -8q-3 -12 -7 -12l4 -8q-41 -171 -86 -249q-33 -33 -94 -118q-28 -16 -66 -16h-8q-59 0 -258 106zM378 1100q0 7 4 49l-4 28l8 5h4l12 -9l4 9l-4 20 q8 0 8 16h11l12 -8q8 0 12 33q-4 8 -4 12l12 8q11 -4 11 -8q8 4 12 4q7 0 23 -8h12q0 -6 39 -17q8 5 12 5q0 -7 70 -45h4v12h8q21 0 27 -16v-33q0 -40 -15 -57q-41 -54 -59 -65q-4 -21 -4 -25h-12v9h-7v-9q-11 0 -24 9q-7 -4 -12 -4q-3 12 -42 28l-8 -4l-51 28h-4v-4 q-55 34 -55 37z" />
<glyph unicode="k" horiz-adv-x="900" d="M0 116q24 228 92 582q132 551 132 652q-4 0 -4 4q8 4 12 4q8 -4 12 -4v22q8 10 8 15h8l12 -7q8 0 16 45h4l20 -4q8 4 12 4q1 -8 8 -8h20q0 -8 60 -18q16 -19 44 -19q0 -8 20 -8v4h4q28 -1 28 -7q0 -122 -124 -653q-12 -46 -12 -71l8 -4h8q172 210 196 278q10 2 44 48 l8 -3q15 33 28 37q60 -4 60 -19l8 4q17 0 32 -7q8 3 12 3q0 -9 60 -33q22 3 36 3l8 -11v-7q-65 -123 -208 -293q-84 -101 -88 -101q204 -308 204 -458v-3q-12 0 -20 -23q-50 -43 -56 -60q-4 0 -4 4l-20 -4h-4q-8 0 -8 11h-4v-7h-8q-6 0 -16 15l-8 -4q-6 0 -16 15l-8 -4 q-64 22 -100 45q-18 0 -32 109q-29 78 -80 161q-85 -78 -104 -78v-19q0 -4 -4 -4q0 -4 4 -4q-8 -116 -24 -116q0 -7 -36 -45q-24 -16 -24 -37h-12v7q-10 -7 -16 -7l-16 7q-8 -4 -12 -4q-4 10 -40 27l-8 -4q-10 0 -36 19q-23 0 -76 33z" />
<glyph unicode="l" horiz-adv-x="600" d="M0 247q0 76 113 580q29 122 79 439q17 35 42 59l4 17h12l9 -4q10 38 25 47q75 -9 75 -21l8 4q17 -9 25 -9q8 5 13 5q0 -18 75 -43q1 9 8 9h4q25 -3 25 -13q-25 -64 -41 -166l4 -9q-50 -280 -71 -349l4 -9q-104 -423 -104 -524v-17h4q7 0 25 8q126 -22 163 -51 q59 -10 79 -17v-13q-17 -10 -17 -25q-7 0 -50 -56q-6 0 -16 -8l4 -9v-4l-4 -8q-5 0 -5 4q-15 0 -137 -51q-21 -13 -55 -13h-20q-113 18 -247 111q-33 31 -33 136z" />
<glyph unicode="m" horiz-adv-x="1400" d="M0 232l4 7l-4 23v4l4 7h-4q4 7 4 11t-4 4l4 19v82l4 23q0 3 -4 3l4 23q0 40 3 161h4q0 3 -4 3l4 38v30l4 7h-4l4 8v15q0 3 -4 3l4 8q10 241 49 247q16 32 38 37q15 29 19 34q38 -3 38 -11q4 0 4 4q22 0 22 -12l8 4h7q40 -12 91 -41q21 4 34 4q6 0 12 -12h-4l4 -7 q-38 -45 -38 -187h-4q0 -4 4 -4q-8 -43 -8 -105v-7l-4 -8h4l-4 -7l4 -23q-4 0 -4 -3h8q74 163 201 321q63 72 90 72q26 0 99 -19q7 0 49 -26q87 0 87 -53q8 0 8 -75v-138l-4 -8h7q68 140 174 251l12 8h4l22 -4l8 4q50 -19 91 -27q0 -11 53 -26q4 0 11 4q57 0 57 -120 q0 -31 3 -33q-3 -7 -3 -15v-4q0 -4 3 -4q-3 -7 -3 -11q3 -7 3 -11h-3l3 -8v-101q0 -8 4 -15l-4 -7l4 -38h-4l4 -7v-30q0 -14 4 -34q0 -3 -4 -3q16 -315 72 -315l8 4q30 -8 30 -15v-11l-19 -4l4 -7v-4q-51 -56 -57 -56q0 -23 -34 -23q-52 0 -219 90q-42 56 -42 101 q0 16 -8 37l4 8q-7 0 -15 176v7h-8q-117 -336 -177 -374q-47 -71 -72 -71h-8q-33 0 -60 19q-144 53 -144 78q-6 0 -12 38h4l-4 7q4 118 4 142q4 0 4 4q-4 0 -4 4h4q0 4 -4 4q15 187 23 224l-4 8v3l4 8l-8 4q-151 -354 -196 -412q-83 -93 -91 -97q-15 0 -15 -4q-40 0 -133 45 q-32 5 -87 48q-8 24 -15 109z" />
<glyph unicode="n" horiz-adv-x="957" d="M0 115v27q0 78 8 196h4l-4 8l4 15l-4 8q8 0 27 304q0 4 -4 4l4 19v173q0 34 -8 65l8 4l12 -8h8v8q0 9 -4 15q8 13 8 20h3l16 -12q8 4 12 4v8l4 23q-4 7 -4 11q4 0 4 4q44 -4 58 -12q0 4 4 4q4 -7 4 -11q4 0 4 4q35 -3 82 -31q14 0 27 -12l20 4h15q9 0 16 -42l-4 -8l4 -23 h-4l4 -8v-115q0 -4 -4 -4l4 -7q-4 -48 -4 -54q4 -20 4 -23q-4 -15 -4 -31v-4h4q97 165 284 358q27 11 32 11q144 -26 144 -46q19 0 31 -8q2 0 16 4q43 0 43 -54l-43 -376q0 -4 4 -4l-4 -19v-66q0 -93 15 -154q-4 0 -4 -3q5 0 28 -66q24 -50 66 -50l4 -7v-16h-4l-8 4 q-1 -16 -47 -65q-15 0 -15 -27h-27q-63 0 -223 92q-74 63 -74 311v16l4 8q-4 0 -4 3h4q0 4 -4 4l4 19v27h-8q-83 -137 -167 -353q-27 -61 -86 -123q-17 -30 -51 -58q-43 0 -101 31l-82 31q-51 28 -51 53z" />
<glyph unicode="o" horiz-adv-x="900" d="M0 323v11q0 177 121 402q62 123 199 259q2 13 65 30q131 -26 150 -49q91 0 91 -52v-4q-15 0 -23 -26q-7 0 -30 -34q-12 -8 -19 -8v-18l-4 -8q97 -23 185 -53q53 0 121 -75q18 -45 30 -109l-4 -26v-26q0 -9 4 -15l-8 -30h4q-24 -113 -56 -165q-65 -112 -200 -244 q-108 -83 -219 -83h-15q-111 0 -302 113q-90 73 -90 210zM275 353q0 -123 64 -184q144 47 208 146q60 127 60 214q0 6 -4 45h4q-17 113 -60 113q-43 16 -49 26l-8 -3q-59 27 -68 41v4h42v7q-15 0 -15 8q1 7 7 7l-4 8v7h31q0 7 7 19q-4 7 -4 15l8 4h23v7l-8 -3h-4l-19 15 q-43 0 -150 -241l-23 -60h4q-42 -111 -42 -195zM535 826h12v4q0 7 -8 7h-4v-11z" />
<glyph unicode="p" horiz-adv-x="1010" d="M8 342q9 107 112 256q40 47 40 92v24q0 4 4 4q0 4 -4 4l4 40v84l4 24q0 4 -4 4q10 70 28 88l8 -4q13 44 24 44q0 -6 12 -12q12 48 24 48l20 -4l8 4q32 -4 32 -20q8 0 8 8q27 -12 32 -12q8 4 12 4q2 -15 56 -32q0 -4 16 -12q0 9 4 16q30 -8 40 -8q69 60 172 60 q55 0 172 -40q0 -8 36 -16l8 4q124 -28 124 -164q0 -115 -108 -296q-114 -160 -228 -268q-59 -48 -144 -64v-4l-8 4h-36l-28 -4v4q-4 0 -4 -4l-20 4h-24v-32q0 -4 -4 -4q0 -4 4 -4l-8 -60q0 -4 4 -4l-4 -20v-4q0 -34 -4 -108q-4 0 -4 -4h4q-4 -8 -4 -12l4 -8q-4 -7 -4 -16h4 l-4 -8l4 -16l-4 -24l4 -8q-4 -7 -4 -16v-4q0 -9 4 -16l-4 -8l4 -40q0 -34 -16 -40q0 -8 -36 -52q-28 -18 -28 -40h-8v8h-12v-8q-20 0 -20 8l-8 -4h-4q-2 0 -20 16l-8 -4q-3 12 -16 16q-8 -4 -12 -4l-24 16v4h-8q-37 0 -56 32l-8 -4h-4q-6 0 -12 12q4 22 4 32q0 8 -4 8l4 20 v104q0 9 -4 16q4 8 4 12q0 23 8 188h4q0 4 -4 4q8 88 12 88q0 4 -4 4q8 53 8 72q-20 4 -20 16h-8q-23 0 -80 40zM420 402q4 -7 4 -16q108 37 180 156q88 137 100 260l-4 8q4 7 4 16q-4 0 -4 4h4q-6 16 -12 16q-68 -36 -160 -116l-84 -88q-4 -76 -24 -240h-4z" />
<glyph unicode="q" horiz-adv-x="940" d="M-8 507v19q0 57 15 88h-4q6 75 180 267q165 148 301 148v-4l7 4q117 0 235 -53q59 0 99 -54q22 -28 22 -45v-8l-18 -27l-4 -7l48 -23q1 8 7 8q37 0 37 -31q0 -89 -73 -263q-5 -53 -11 -53q0 -4 3 -4l-40 -179l4 -7q-8 -13 -45 -229h-3l3 -7q-7 -14 -40 -210h4 q-9 -61 -11 -61q0 -3 3 -3q0 -8 -7 -27q5 0 11 -11v-8q0 -6 -15 -11l4 -8q-38 -48 -59 -65q4 -7 4 -11l-7 -4l-11 8q0 -8 -8 -8h-3q-8 0 -8 8l-7 -4h-7q-25 23 -74 34l-55 31q-25 10 -33 26v4q0 55 22 160l-3 7q7 12 29 164q6 16 22 107v7h-7q-29 -24 -107 -34 q-90 0 -301 130q-99 111 -99 239zM260 530l4 -7v-19q0 -90 73 -179q97 34 213 167q37 39 66 229q4 0 4 3h-4q15 63 22 73l7 -4h4l7 27l-18 -4q-40 24 -40 34l-8 -4l-11 8h-3q-85 0 -228 -111q-77 -76 -77 -148q-5 0 -11 -53q4 -8 4 -12h-4z" />
<glyph unicode="r" horiz-adv-x="800" d="M0 90l4 19v22q0 4 -4 4l4 7v53l3 7h-3q47 261 47 424v11q0 4 4 4q0 4 -4 4q7 59 11 131l-4 7q4 34 8 34q0 4 -4 4q9 131 15 131q0 4 -4 4q6 52 26 52q11 34 18 34l15 -11h3q3 52 18 52l8 -11l7 4q26 -2 26 -8l7 4h4q0 -11 3 -11q70 -5 70 -27h18q21 -15 26 -15q0 4 3 12 q13 0 29 -12l-3 -7v-8l3 -7q-8 0 -14 -60h3l-10 -56h3q88 86 143 86q64 0 197 -53q52 0 106 -56v-15q-15 0 -15 -4q4 -7 4 -11q-8 0 -47 -49q-11 0 -11 -11q3 -7 3 -11l-7 -4q-7 0 -7 8l-8 -4q-21 0 -106 37h-7q-103 -24 -201 -239q-47 -85 -91 -278q0 -22 -4 -22q0 -4 4 -4 l-15 -97l4 -8q-4 -6 -4 -15q0 -4 4 -11q-4 -30 -11 -30q0 4 -4 4q0 -19 -29 -45l-29 -34q0 -15 -8 -15q-3 7 -3 11q-6 0 -11 -11q-15 6 -15 11l-7 -4h-8q-3 0 -14 15l-7 -3q-17 15 -19 15q-3 0 -3 -4l-48 22q-12 0 -47 27q-10 0 -15 11z" />
<glyph unicode="s" horiz-adv-x="800" d="M0 335l4 8q-4 6 -4 15q1 8 8 8q0 -5 20 -20h4q0 12 8 12l8 -4q1 8 8 8q15 -23 40 -23q0 11 8 11h4q121 -116 156 -116h28q68 0 196 66q59 46 76 74q-60 62 -116 62q-44 14 -256 54q-100 36 -100 137q-16 81 -16 105v35q17 81 192 179q140 70 212 70q188 -10 188 -54 l16 -36l-4 -7q12 -33 20 -43l-4 -16q4 -7 4 -11l-4 -8q11 -38 28 -59v-7q0 -6 -12 -12l-16 8q0 -8 -8 -8q-26 10 -76 19q-13 -7 -24 -7q-4 0 -4 4q-95 -29 -216 -98q0 -6 144 -35q85 -20 144 -89q88 -156 88 -242q14 -15 24 -81q0 -95 -152 -183q-116 -51 -176 -51h-68 q-200 16 -200 39q-152 94 -152 167l-4 20h4q-12 31 -12 39q4 7 4 15q-12 0 -12 55z" />
<glyph unicode="t" horiz-adv-x="742" d="M0 232v16q0 124 95 464l-37 24q1 8 8 8h4q4 0 4 -4q17 8 25 8v4q-21 0 -21 12q10 16 25 16q12 0 74 288q35 188 57 188q11 0 21 40h12l9 -4q15 44 24 44l29 -4q0 4 4 4q0 -8 87 -24q30 -28 57 -28q0 -4 13 -8q1 8 8 8h12q10 -8 21 -8v-8l-29 -80h4l-70 -304q4 -7 4 -16 q4 0 4 4q49 -7 87 -32q25 -8 41 -8l8 4l29 -12q-7 -20 -21 -20l4 -8v-4q-33 -25 -45 -48l-20 -8l4 -20q-148 -45 -148 -60q-9 -32 -13 -32l4 -8q-8 -19 -45 -164h4q-8 -13 -20 -80h4q-12 -36 -17 -88l4 -16l-4 -20q3 -24 9 -24q136 63 185 100q41 -4 57 -12q0 4 4 4 q4 -8 4 -12q10 0 17 4q37 -8 53 -20q17 -11 58 -24q1 8 8 8q4 0 4 -4l9 4q16 -6 16 -12v-12q-57 -66 -78 -84q0 -29 -111 -76q-160 -88 -226 -88h-33q-39 6 -177 64q-91 51 -91 108q-7 0 -8 60z" />
<glyph unicode="u" horiz-adv-x="953" d="M0 461q4 6 4 14l-4 14h4l-4 7v50q0 12 4 18l-4 22v28q0 4 4 4q0 3 -4 3l4 25v18q0 31 4 97q3 0 3 3h-3q3 7 3 11q0 82 35 168q5 0 42 46q14 0 27 32q4 0 11 4q112 -19 145 -43q19 0 19 -11q21 4 31 4l19 -4v-10q-24 -20 -42 -111q-15 -166 -15 -175h4l-4 -7v-7 q0 -11 4 -11l-4 -18v-139q0 -8 4 -14q0 -4 -4 -4q4 -98 11 -136h-4l8 -28h-4l12 -50h-4q11 -21 11 -50q147 85 230 339q11 19 23 79q22 72 61 271h7q8 -4 12 -4v11q0 15 11 29l19 -11q9 46 19 46l12 -7q9 0 15 4l69 -22q7 4 11 4q25 -25 54 -25q0 -5 11 -11l12 7 q30 0 30 -25v-3q-3 0 -3 -4h3q-38 -251 -42 -257l4 -7q-9 -64 -11 -64q0 -4 4 -4q-8 -33 -16 -100q0 -3 4 -3l-8 -54q0 -4 4 -4l-4 -25v-57l4 -35h-4q16 -111 46 -143l50 -25v-11l-19 -4l8 -10q-24 -18 -42 -43q-18 -11 -23 -11l3 -18q-3 0 -3 -3l-8 3h-19q-33 0 -100 32 q-152 52 -152 118h-4q-174 -164 -241 -164h-30q-33 0 -104 29q-94 33 -137 82q-35 43 -61 218v7h3q0 3 -3 3q-4 66 -4 97v10q0 8 -4 15z" />
<glyph unicode="v" horiz-adv-x="900" d="M0 961q0 8 12 8q11 -4 11 -8q8 4 12 4v4l-12 14q4 22 12 22h4q12 -10 31 -15v4l-12 15l12 14q-8 0 -8 8q1 7 8 7h4q8 0 15 -4l8 4l89 -22q0 -11 54 -26v-3l27 3q32 0 50 -95q8 -21 43 -186q0 -4 -4 -4q12 -104 19 -153l-4 -7l12 -84h-4l4 -8v-18h8q35 129 108 303 q53 138 147 223l27 29q62 -7 62 -18h12q27 -1 27 -7l8 4q38 -23 38 -26l8 4h4q8 0 8 -11h4q10 0 23 7q23 -5 23 -11v-11l-54 -69q-72 -144 -136 -322h4q-69 -199 -96 -267q-41 -103 -144 -212q-36 -51 -73 -51v4q-4 0 -4 -4q-22 0 -139 48q-105 42 -105 102l-31 110q0 3 4 3 q-4 48 -12 77q4 0 4 4q-4 0 -4 3h4q-4 7 -7 33h3l-23 205h4l-15 98h4l-24 114h4q-31 127 -42 139l3 7q-5 0 -15 18z" />
<glyph unicode="w" horiz-adv-x="1300" d="M0 157v58q0 77 25 190h-4q107 490 135 542q17 10 37 46h17q0 10 21 41q18 0 107 -25q8 4 12 4q30 -33 58 -33q0 -10 16 -12q1 8 8 8h21q8 -1 8 -8v-8q-33 -91 -66 -232q4 0 4 -4q-8 0 -53 -215v-4h4q0 8 25 49q-5 0 -5 4q23 27 157 282q14 9 20 41q19 17 50 66 q8 -4 12 -4q20 46 29 46l12 -9l21 4q0 -6 70 -24q8 4 12 4q0 -13 70 -42h4q2 9 9 9h16q7 0 17 -17q-8 -41 -13 -41l4 -9q-37 -159 -53 -339h4l-8 -29q4 0 4 -4q-4 0 -4 -4h4l-4 -8v-66q0 -5 -4 -5l4 -8v-25q0 -4 -4 -4q4 -10 8 -41h-4l4 -8v-38h8q152 266 152 455 q0 66 -41 162l8 4q2 -8 9 -8h12l8 4l-12 20q5 21 12 21l17 -12q12 4 12 8l-4 8l8 17q-4 7 -4 16q4 0 4 4q136 -24 136 -41q58 -15 58 -29h4q0 9 4 17q49 0 70 -124q0 -14 4 -21q-4 -7 -4 -17v-4l4 -21q-4 0 -4 -4h4l-4 -8q0 -169 -136 -422q-205 -294 -292 -298h-37l-9 5v-5 q-115 38 -197 83q-50 28 -70 79h4q-12 18 -25 78h-8q-58 -99 -193 -235q-28 -17 -46 -17h-12q-26 0 -128 41l-61 33q-58 24 -58 83z" />
<glyph unicode="x" horiz-adv-x="900" d="M0 144v8q15 12 36 48q108 140 216 308q-112 254 -112 372q12 51 12 76h8l12 -8q4 31 12 48l20 -12q8 0 16 52h8l12 -8l8 4l76 -24l8 4l40 -28q8 4 12 4q0 -6 24 -20h4v12h8q22 0 28 -20q-12 -63 -12 -104v-12q1 -8 8 -8q25 35 116 200q27 55 76 96q8 23 28 32q8 -1 8 -8 l8 4q4 0 4 -4l8 4l72 -24l8 4q31 -24 60 -32v-4l40 4q6 0 12 -12v-8q-115 -195 -276 -488l-56 -80q53 -141 224 -380q4 -22 4 -36q-59 -74 -72 -80q0 -24 -12 -24h-4v12l-16 -12h-4q-98 44 -104 44v8l-20 -4q-50 36 -64 36v12q0 4 4 4q-36 64 -112 164q-66 -102 -156 -200 q-18 0 -24 -4q-48 13 -48 24l-8 -4q-10 10 -52 20q0 12 -8 12q-7 -4 -16 -4q-49 36 -64 36z" />
<glyph unicode="y" horiz-adv-x="900" d="M0 636l4 20q-4 0 -4 4h4q0 4 -4 4q0 129 32 224q54 72 61 72q0 13 18 24h18q4 0 4 -4l7 4q13 -8 29 -8h7v-12q2 0 15 4q14 0 86 -40l21 4l8 -4v4q18 -5 18 -12q-2 -11 -15 -20q0 -10 -21 -36q-10 -42 -22 -128q4 0 4 -4h-4q0 -4 4 -4l-4 -20q0 -8 4 -8l-4 -20v-24 q0 -166 40 -244q175 129 295 440h-4q11 28 11 40h-4q4 36 25 36q8 35 18 40l18 -12q0 32 15 52q105 -21 136 -48q18 0 18 -12l36 4h7l4 -20v-20q-16 0 -32 -220q-4 0 -4 -4h4q-8 -25 -11 -52h3q-7 -27 -18 -176h-3q0 -4 3 -4q-14 -105 -14 -144h4q-8 0 -15 -132h4 q-4 -13 -11 -84q0 -4 4 -4q-15 -165 -40 -220q-107 -152 -140 -152q-34 -9 -50 -16q-4 0 -4 4q-50 -4 -50 -8l-18 4h-8q-213 0 -445 172q-22 25 -22 36l7 4l11 -8h7l7 4l-10 20q7 10 7 20h7q5 0 11 -12l7 4l7 -4v8l-3 8q2 16 7 16l-4 8v4l4 8q46 -5 46 -12l8 4 q13 -12 54 -20q8 -15 46 -24l8 -8l18 4h14q33 -43 61 -56h65q111 0 111 64q0 38 11 64q-4 8 -4 12l4 28h-4q8 47 11 68q0 4 -3 4l14 172h-4q4 10 8 40h-4q-129 -136 -212 -136q-183 44 -273 148q-24 44 -40 104h4q-22 58 -22 188z" />
<glyph unicode="z" horiz-adv-x="900" d="M0 181v4q77 102 285 399l205 263h-7q-53 0 -264 -64q-21 0 -102 34q-8 0 -18 15l-8 -4q-8 2 -69 42q0 5 15 11q7 -4 11 -4q0 4 3 4l-3 8q0 30 32 30l8 15q-8 0 -8 7q2 8 19 15l7 -3q111 41 311 71q82 15 153 15h4q8 0 15 4q133 -25 171 -53q53 0 81 -26q-4 -33 -55 -90 q-279 -348 -420 -558q96 -4 343 -98q130 -91 165 -98l7 -11v-11q0 -8 -7 -8q0 4 -4 4l-4 -7v-4l4 -8q-15 -2 -40 -41q-18 -10 -18 -15q3 -7 3 -11l-7 -4l-11 7q0 -11 -7 -11q-15 6 -15 11l-7 -3h-4q-18 15 -22 15v-4q-143 59 -234 124q-30 7 -106 11q-64 0 -208 -56 q-44 0 -59 19l-7 -4q0 7 -91 41z" />
<glyph unicode="{" horiz-adv-x="656" d="M0 240v51q0 60 119 283q12 29 12 45q-16 0 -16 14q4 0 4 4q-7 0 -20 37v18l4 9l-9 5l5 23q-13 19 -13 36q4 8 4 18q-9 0 -12 37h4l-4 9v9q0 11 4 19q-4 7 -4 18l62 36q57 67 57 242q-16 121 -16 151v77q0 88 152 174q61 18 73 18q76 -5 95 -5q4 -8 4 -13h45q5 0 21 -37 l-4 -9q6 0 12 -18l-4 -9l20 -50l-4 -23l4 -9l-4 -10q8 -15 8 -27q0 -4 -4 -4q0 -10 21 -28q4 -8 4 -18v-9q-199 -7 -259 -160v-50q21 -121 21 -137v-9q0 -5 -4 -5q0 -4 4 -4q0 -209 -74 -302v-18q22 -53 29 -105q0 -150 -115 -351l-25 -46q51 -27 66 -27q24 14 41 14 q55 -5 82 -5q0 -7 12 -14h29q27 0 41 -73q-4 0 -4 -4l25 -46l-4 -23v-18q0 -12 8 -27l-4 -10q24 -32 24 -50q-12 -4 -12 -9l-21 5h-4q-16 0 -70 -14h-20q-190 17 -238 50q-132 50 -148 374z" />
<glyph unicode="|" horiz-adv-x="1014" />
<glyph unicode="}" horiz-adv-x="600" d="M0 51v5q0 11 4 19q-4 8 -4 19q0 9 13 9q29 -9 32 -9q4 0 13 4q24 -4 40 -4q116 48 161 155l4 9q-40 181 -40 258v29q0 71 31 117q-27 150 -27 202v42q0 131 103 320q22 53 22 61l-9 -5q-3 0 -27 5q-8 -5 -13 -5q0 10 -31 14l-9 -4q-20 9 -45 9q-8 -5 -13 -5l-4 10l4 9 q-18 0 -18 10h5q-14 28 -14 33t5 14q-5 41 -18 65l4 29q-7 0 -13 28q4 8 4 19l-4 9l4 9l-4 29q16 9 36 9q264 0 294 -85q62 -131 62 -220q27 -43 27 -90q0 -128 -125 -366v-24q34 10 40 10q21 -17 40 -75l-4 -10q14 -39 22 -52l-4 -23l4 -9l-4 -10q12 -45 31 -70v-14 q-134 -110 -134 -146q-22 -42 -22 -71q49 -206 49 -249q0 -137 -156 -235q-36 -23 -85 -23v5q-4 0 -4 -5l-178 28q0 5 -5 5l5 9v5q-11 0 -27 33l4 23l-4 19q4 8 4 19q-13 3 -13 38q4 9 4 14q-13 0 -13 51z" />
<glyph unicode="~" horiz-adv-x="1014" />
<glyph unicode="&#xa1;" horiz-adv-x="672" />
<glyph unicode="&#xa2;" horiz-adv-x="1139" />
<glyph unicode="&#xa3;" horiz-adv-x="949" d="M0 718l4 8q-4 0 -4 4q6 4 19 4v3l-7 12q7 0 61 57v19l16 -4l7 4q30 -11 58 -11q12 37 47 218q41 126 196 305q82 88 147 88v-4l8 4q30 0 92 -31q174 -62 174 -145v-7l-27 3l4 -19l-4 -23h-8l-15 12h-12q0 -4 4 -12q-4 -20 -4 -34h-19q-4 0 -4 4q-8 -4 -12 -4 q-33 8 -69 23l-8 -4q-34 27 -61 27q-66 -84 -85 -153q-25 -40 -51 -214h4q33 4 54 4q51 0 89 -31l8 4q28 -19 65 -27l47 -34v-4h-35q-8 -1 -8 -7q16 0 16 -8q-4 -23 -12 -23h-11l-8 4l-12 -23l8 -12l-12 -7h-15q-232 -14 -232 -42q-50 -276 -50 -321q-7 -44 -7 -61v-4h7 q94 0 274 -76v3q17 36 23 88q-3 29 -7 38h4l-4 8v8q2 9 73 84q0 19 8 19h4l11 -8l4 8l19 -8q8 4 12 4q0 -2 15 -19l8 4l15 -12l8 4q19 -8 35 -23l8 4h3l51 -31q8 0 15 -3q0 -4 -4 -12q4 -39 4 -61q0 -108 -170 -271q-63 0 -301 84l-7 4q-72 0 -189 -73q-20 -16 -20 -19 q-142 24 -142 46q-18 0 -39 11q0 -7 -8 -7q-28 0 -31 11v38q31 115 47 218q0 4 -4 4q4 46 8 46q0 4 -4 4l58 305q-31 15 -105 31q-15 7 -15 11z" />
<glyph unicode="&#xa4;" horiz-adv-x="1014" />
<glyph unicode="&#xa5;" horiz-adv-x="1262" />
<glyph unicode="&#xa6;" horiz-adv-x="1014" />
<glyph unicode="&#xa7;" horiz-adv-x="800" d="M0 832q4 7 4 16l-4 16q24 0 24 -16h8v8h8l8 -4v8h8q21 -20 36 -20h4q0 12 8 12q4 0 28 -20v40q0 50 28 132q-76 73 -76 180q-8 0 -16 112v40q0 105 212 208q61 16 120 16q177 -9 192 -40l20 -48l-4 -8q13 -40 20 -40l-4 -28v-4q0 -21 28 -72v-4q0 -6 -12 -12q-8 0 -8 8 q-14 -4 -16 -4q-28 8 -80 12l-8 -4q-4 0 -12 4q-114 0 -244 -132q109 0 304 -60q45 -25 68 -96q23 -122 36 -136l12 -60q0 -168 -100 -268v-4q29 0 92 -92q36 -102 44 -172q10 0 20 -52q0 -139 -232 -236q-44 -12 -64 -12h-20q-154 12 -212 40q-88 45 -124 80q-43 26 -60 80 h-4l4 20l-4 20h4q-16 32 -16 44l8 4q-12 20 -12 52v16q0 4 4 4q-8 13 -8 20l8 4q2 0 24 -24q0 16 8 16q4 0 4 -4l8 4h4q24 -17 24 -20l8 4l8 -4q0 12 8 12h4q113 -106 196 -128q99 12 208 116q-50 18 -152 44q-102 43 -156 128q-67 13 -156 96q-18 15 -40 60l4 20 q0 13 -16 56q4 7 4 16zM324 740h4q121 57 152 144q-78 -17 -140 -100q-16 -39 -16 -44zM472 920q16 0 16 -12q8 0 8 8v8q-21 4 -24 4v-8z" />
<glyph unicode="&#xa8;" horiz-adv-x="1024" />
<glyph unicode="&#xa9;" horiz-adv-x="1674" />
<glyph unicode="&#xaa;" horiz-adv-x="648" />
<glyph unicode="&#xab;" horiz-adv-x="944" />
<glyph unicode="&#xac;" horiz-adv-x="1014" />
<glyph unicode="&#xad;" horiz-adv-x="900" d="M0 505v4l7 11v4q-7 0 -7 4q6 15 11 15l-4 7v4q25 31 34 71q11 4 11 7l-3 8q10 28 44 67q10 0 30 -4q82 7 82 15q4 0 4 -4q436 71 504 71v4q4 0 4 -4q40 0 52 19h4q5 0 11 -11q-8 -12 -8 -23l15 12q26 -6 26 -19q-3 -5 -3 -19q15 -1 15 -7l7 4h8q11 0 11 -15l-8 -15 q4 -7 4 -15q-7 -9 -30 -82q-9 -5 -30 -56l8 -4q0 -39 -41 -45l-8 4q-211 -23 -250 -34l-7 4q-173 -30 -329 -52v3q-14 -7 -41 -7h-11q-4 0 -4 4l-7 -4h-4q-66 56 -78 75z" />
<glyph unicode="&#xae;" horiz-adv-x="1674" />
<glyph unicode="&#xaf;" horiz-adv-x="670" />
<glyph unicode="&#xb0;" horiz-adv-x="674" />
<glyph unicode="&#xb1;" horiz-adv-x="1014" />
<glyph unicode="&#xb2;" horiz-adv-x="1014" />
<glyph unicode="&#xb3;" horiz-adv-x="1014" />
<glyph unicode="&#xb4;" horiz-adv-x="300" d="M0 1116q0 12 4 12l-4 20q0 26 12 52l-4 16q0 16 16 16l-4 20l4 16q-4 7 -4 20q8 4 12 4l-4 8v8q0 6 16 12l-4 8v4h4l16 -8q20 12 32 12q4 0 4 -4l36 12l20 -4q7 4 16 4q42 -31 104 -196q4 -27 4 -44v-36q0 -27 -24 -84q0 -73 -56 -172q-11 12 -32 16v16h-4q0 -8 -8 -40 h-12v8l-8 -4h-8l4 20l-8 4q-16 -23 -16 -32h-12l4 24q0 4 -4 4q5 49 12 64q-4 7 -4 16q0 4 4 4q-43 143 -104 204z" />
<glyph unicode="&#xb5;" horiz-adv-x="1180" />
<glyph unicode="&#xb6;" horiz-adv-x="1024" />
<glyph unicode="&#xb7;" horiz-adv-x="508" />
<glyph unicode="&#xb8;" horiz-adv-x="1024" />
<glyph unicode="&#xb9;" horiz-adv-x="1014" />
<glyph unicode="&#xba;" horiz-adv-x="718" />
<glyph unicode="&#xbb;" horiz-adv-x="944" />
<glyph unicode="&#xbc;" horiz-adv-x="1708" />
<glyph unicode="&#xbd;" horiz-adv-x="1964" />
<glyph unicode="&#xbe;" horiz-adv-x="1708" />
<glyph unicode="&#xbf;" horiz-adv-x="748" />
<glyph unicode="&#xc0;" horiz-adv-x="1540" />
<glyph unicode="&#xc1;" horiz-adv-x="1540" />
<glyph unicode="&#xc2;" horiz-adv-x="1540" />
<glyph unicode="&#xc3;" horiz-adv-x="1540" />
<glyph unicode="&#xc4;" d="M0 947q25 17 25 29q69 82 171 137q281 203 479 203q70 0 217 -58q97 0 137 -116l21 -67q-4 0 -4 -4q4 0 4 -4h-4q8 -19 25 -95q0 -5 -4 -5q12 -72 12 -157h-4q0 -4 4 -4l-4 -21v-75q0 -4 -4 -4q0 -4 4 -4l-8 -71q4 -8 4 -12q-4 0 -4 -4h4l-17 -104q0 -4 4 -4l-21 -113h5 q-9 -35 -50 -298q-17 0 -17 -21q-15 0 -38 -42q-20 -2 -20 -33h-5l-16 4q-4 0 -4 -4q-34 0 -75 33l-9 -4h-4q-30 20 -79 33q-49 30 -58 75q-46 114 -96 179q-59 -9 -79 -9q-46 0 -46 17h-4q0 -29 -5 -33h5l-5 -9q0 -65 -16 -83q-68 -67 -71 -91h-4l-13 8q0 -8 -8 -8 q-46 14 -46 25l-8 -4q-21 13 -21 16q-4 0 -4 -4q-13 0 -46 21q-83 29 -83 58q12 0 20 129h-4q9 49 13 70q0 5 -4 5l12 74q-4 0 -4 4q4 0 4 5h-4q7 0 17 153h4q0 4 -4 4l4 42v29l4 8h-4l4 9v33l4 41q-4 0 -4 4q4 0 4 5q-4 0 -4 4q4 0 4 4h-4l4 8v9q-44 23 -83 33q0 8 -63 29 q0 7 -33 25zM312 1433q14 90 38 124h12q13 33 13 37h8l13 -8q15 50 21 50q21 -4 25 -4l8 4q33 -6 33 -21l9 4q29 -1 29 -8l8 4h4q31 -27 79 -41q2 8 9 8h16q6 0 13 -12v-17q-33 -106 -33 -112q-10 0 -13 -25q-12 0 -46 -46q-8 -4 -12 -4v-21q0 -8 -9 -8h-4v12h-4l-12 -8 q-17 3 -17 8l-8 -4h-5l-45 29l-9 -4q-31 21 -87 38q-6 15 -34 25zM458 511q4 -8 4 -13h38q72 0 200 -45q0 -9 42 -13v4q0 21 8 50l-4 8l8 25h-4q10 79 12 79q0 4 -4 4q13 108 13 225q-4 61 -4 83q-5 0 -5 4h5q-21 104 -46 199h-9l-8 -4v4q-166 -62 -204 -95q-4 -8 -4 -17 v-29q0 -4 -4 -4l4 -9q0 -4 -4 -4q0 -4 4 -4l-13 -141q0 -4 4 -4q-12 -158 -16 -158q0 -4 4 -4q-4 -45 -8 -54h4q-9 -21 -9 -75v-8q0 -4 -4 -4zM637 1403q16 27 25 84l-4 20l9 4l12 -8l8 4q-4 15 -4 17l4 25h9l16 -13q8 4 13 4v17q0 9 4 17q-4 8 -4 12l8 4l21 -4q8 4 13 4 q0 -5 58 -20q17 0 67 -30q3 0 37 -12v8h8q5 0 5 -4l8 4q21 -6 21 -29q0 -83 -67 -141l-37 -50q0 -4 -5 -4l-12 8q0 -8 -8 -8q-17 3 -17 8l-8 -4h-5q-14 17 -37 21q0 6 -42 17q0 6 -12 12q-8 -4 -13 -4l-66 41h-5z" />
<glyph unicode="&#xc5;" d="M0 1015q23 15 23 25l7 4l-3 7v4q13 0 38 21q-4 7 -4 11q277 155 558 176h23q86 0 262 -61q73 0 145 -111q-4 0 -4 -4q23 -21 38 -122q-4 0 -4 -4q4 0 4 -4h-4l4 -7v-93q0 -4 -4 -4q0 -3 4 -3q-4 -44 -11 -87l3 -7l-19 -104q0 -4 4 -4q-7 -68 -11 -68l4 -8q-4 -6 -4 -14h4 q-16 -52 -27 -335q-4 0 -4 -3q4 0 4 -4h-4q0 -4 4 -4l-4 -18q0 -3 4 -10q-14 -119 -42 -119q-43 -45 -49 -65h-23q-33 0 -61 18q-39 11 -110 43q-46 29 -61 83q-124 292 -186 292q-39 14 -46 14q-3 -54 -3 -79q-4 0 -4 -4h4q-4 -7 -4 -11q0 -141 -23 -165q0 -5 -30 -36 q-31 -27 -31 -43h-4q-3 7 -3 10l-16 -10h-3q-34 11 -42 21h-4q0 -3 -4 -3q-2 9 -19 18v-8q-23 0 -34 18l-8 -3h-3q-65 30 -65 43q0 41 8 101q0 3 -4 3q7 42 7 51h-3q7 27 15 173v7l4 7q-4 0 -4 4q4 0 4 3q-4 0 -4 4q4 0 4 3h-4q7 0 15 173h4q0 4 -4 4l19 205q-11 0 -11 3 q-4 0 -4 -3q-33 0 -69 25l-15 4q0 -4 -4 -4l-22 14v4h-19q-65 33 -65 36zM266 1440h4l-4 7v22l4 7h-4q0 77 152 205q46 15 46 18q216 -43 258 -72q7 4 11 4q80 0 137 -130q0 -13 4 -32q0 -38 -76 -112q0 -25 -68 -50q-39 -18 -137 -26v4l-8 -4h-23q-3 0 -3 4q-4 0 -4 -4 q-62 0 -232 83q-57 42 -57 76zM460 587q97 -22 209 -58q16 0 95 -43v4q15 181 38 316q0 4 -4 4l4 36v54q0 3 4 3l-4 8v21l-4 36h4q-38 137 -65 137h-11q-40 0 -179 -32q-53 -17 -53 -22v-47q0 -3 -4 -3q0 -4 4 -4l-8 -54q0 -4 4 -4q-7 -34 -7 -43q0 -3 3 -3 q-11 -110 -15 -123q4 0 4 -3h-4q0 -4 4 -4l-4 -18v-32q0 -4 -4 -4q0 -3 4 -3q-7 -74 -11 -94q4 -6 4 -14q-4 -7 -4 -11zM543 1476l8 -25q42 10 42 18q-12 48 -27 57q-15 0 -23 -50z" />
<glyph unicode="&#xc6;" horiz-adv-x="1300" d="M0 340q0 4 4 4l-4 20v76q21 115 29 268q70 324 91 440q-4 8 -4 12l4 20q-7 0 -12 28l4 8q-4 8 -4 12l4 20q-4 7 -4 16q26 13 41 72q0 28 12 28h9q0 -24 12 -24q0 19 58 28q49 28 165 44q200 0 273 -96h8q191 52 315 80l8 -12l29 4h16v-16q42 8 50 8q25 -50 25 -64 q-4 0 -4 -4q18 -7 25 -92q4 0 4 -8l-4 -8l24 -32q-4 0 -4 -4q4 0 4 -4q-66 -24 -202 -52q-9 -8 -174 -48q0 -4 -29 -12q17 -55 17 -136v-36l-4 -8l66 16q4 -8 4 -12l41 8q4 -6 4 -24q28 12 38 12h12q5 0 29 -60q-8 -1 -8 -8q9 -1 20 -36h4l-4 -28v-4q9 -28 9 -32t-5 -4 q0 -8 21 -24q4 -7 4 -16q0 -11 -87 -32q-93 -48 -132 -48h-33l-12 8h-5q-24 -172 -24 -188q4 0 4 -4q260 88 347 88q118 -9 149 -28l21 -52q-9 -1 -9 -8q8 -1 25 -40q0 -4 -4 -12l4 -20q-4 -8 -4 -12q8 -1 8 -8v-8q0 -4 -4 -4q25 -27 25 -40q0 -6 -12 -12h-29l-25 4 q-180 -31 -372 -100q-85 -24 -112 -24h-33l-12 8h-21q-29 -128 -41 -128h-5l-12 8l-12 -8q-33 10 -33 12l-9 -4q-4 0 -4 4l-8 -4q-15 12 -29 12l-13 -8h-4q0 11 -20 44l-4 48q4 0 4 4q-13 3 -13 32v4l4 8q-12 0 -12 44v32q41 156 62 256q-146 -66 -285 -112h-33v-8l-21 -140 q0 -21 4 -68q-4 -17 -21 -24q-4 8 -4 12h-4q-10 -8 -16 -8q-29 9 -29 12l-9 -4h-4q-14 0 -29 12h-8l-12 -8q-15 11 -29 48q0 12 4 12q0 11 -17 64q4 8 4 12q-6 13 -12 56zM252 680q202 91 315 116q28 209 28 248l-12 -8q-8 0 -8 8l4 8q-19 0 -25 36l4 20l-8 4l4 8v12 q-16 36 -21 36q-134 -24 -198 -80q-17 0 -37 -180z" />
<glyph unicode="&#xc7;" horiz-adv-x="1399" />
<glyph unicode="&#xc8;" horiz-adv-x="1151" />
<glyph unicode="&#xc9;" horiz-adv-x="1151" />
<glyph unicode="&#xca;" horiz-adv-x="1151" />
<glyph unicode="&#xcb;" horiz-adv-x="1151" />
<glyph unicode="&#xcc;" horiz-adv-x="657" />
<glyph unicode="&#xcd;" horiz-adv-x="657" />
<glyph unicode="&#xce;" horiz-adv-x="657" />
<glyph unicode="&#xcf;" horiz-adv-x="657" />
<glyph unicode="&#xd0;" horiz-adv-x="1518" />
<glyph unicode="&#xd1;" horiz-adv-x="1554" />
<glyph unicode="&#xd2;" horiz-adv-x="1614" />
<glyph unicode="&#xd3;" horiz-adv-x="1614" />
<glyph unicode="&#xd4;" horiz-adv-x="1614" />
<glyph unicode="&#xd5;" horiz-adv-x="1614" />
<glyph unicode="&#xd6;" horiz-adv-x="1300" d="M0 636q4 7 4 16v12q0 4 -4 4l4 8q0 271 291 552q119 120 200 120q172 -25 172 -48q115 0 115 -72q311 -81 352 -136q143 -114 143 -364v-40q0 -4 -4 -4l4 -8q-20 -87 -45 -156q-7 0 -29 -52q-49 -86 -237 -292q-172 -176 -377 -176v4q-4 0 -4 -4q-103 0 -356 144 q-130 113 -172 256q-28 50 -49 172q-5 59 -8 64zM303 652q0 -50 24 -132h-4q41 -146 103 -228q9 -39 98 -112q77 0 241 124q209 197 209 404v12q0 4 4 4l-4 8v16q0 183 -131 308q-40 0 -123 36q-7 0 -24 8q-11 -28 -21 -28h-4l-8 4q0 -8 -8 -8q-16 6 -16 12l-9 -4h-4l-20 16 l-8 -4l-13 16q-8 -4 -12 -4q-15 0 -37 20q-8 -4 -12 -4v4q-112 -83 -143 -164q-67 -121 -78 -236q4 0 4 -4q-4 0 -4 -4q4 0 4 -4h-4l4 -8l-4 -28q4 -8 4 -12q-4 0 -4 -4h4q0 -4 -4 -4zM409 1476q4 8 4 12t-4 4l4 20v32h4l21 -4v4l4 40q29 -8 33 -8q0 48 16 48l17 -4l8 4 q32 -9 32 -20q8 4 13 4q28 0 82 -32q12 0 32 -16h4v12h9l8 -4q0 4 4 4q12 -10 12 -16q8 4 12 4q8 -4 13 -4v8q0 31 16 36q0 -8 21 -8q6 48 16 48l12 -8q9 0 17 4q98 -32 102 -32l57 -32q0 12 8 12q33 0 33 -20l-16 -72l4 -8v-52q-59 -74 -74 -80q-4 -7 -4 -20q-4 0 -12 4 l-25 -4q0 8 -8 8q-8 -4 -12 -4q0 5 -41 28l-8 -4q-29 3 -29 20h-8q-26 0 -66 32q-10 0 -20 8q-8 0 -45 -48q-16 0 -16 -12q4 -8 4 -12l-9 -4l-12 8q0 -8 -8 -8l-21 12q0 -8 -8 -8q-3 11 -45 28q-8 -4 -12 -4q-9 12 -86 40q0 8 -29 20q0 44 -4 44z" />
<glyph unicode="&#xd7;" horiz-adv-x="1014" />
<glyph unicode="&#xd8;" d="M0 691v44q0 228 147 472q83 108 147 136q98 66 165 66q76 0 152 -17q29 0 49 -66q-5 -9 -5 -14q67 -22 76 -22q101 135 156 221l9 4l18 -26q7 17 31 17h13l-4 -22q8 -4 13 -4q31 17 45 17q26 -56 26 -70h-4q0 -2 22 -49l-4 -22l4 -8l-4 -9q9 -15 9 -27q0 -4 -5 -4 q0 -9 23 -26q4 -8 4 -18q-129 -185 -129 -194q53 -95 102 -304q14 -23 23 -132q0 -293 -339 -467q-148 -61 -205 -61h-67l-174 17q-84 -122 -98 -123q0 9 -9 9l-18 -5q-61 10 -89 22q0 -6 -13 -13q-3 19 -18 27q0 10 -9 30q0 5 5 14l-5 26v5l5 8q-14 0 -18 22l4 27 q-9 0 -9 9l5 8l-9 5l4 22l-4 9q4 13 9 13l-9 17l53 84q-71 189 -71 352zM176 460q171 227 336 512l-28 8q-7 -4 -16 -4q-13 8 -20 8q-78 0 -184 -188q-88 -189 -88 -324v-12zM452 368q112 43 208 132q61 49 80 100q22 18 48 144q-26 67 -44 84h-4q-162 -266 -252 -400 q-36 -49 -36 -60z" />
<glyph unicode="&#xd9;" horiz-adv-x="1501" />
<glyph unicode="&#xda;" horiz-adv-x="1501" />
<glyph unicode="&#xdb;" horiz-adv-x="1501" />
<glyph unicode="&#xdc;" horiz-adv-x="1501" />
<glyph unicode="&#xdd;" horiz-adv-x="1233" />
<glyph unicode="&#xde;" horiz-adv-x="1120" />
<glyph unicode="&#xdf;" horiz-adv-x="1251" />
<glyph unicode="&#xe0;" horiz-adv-x="922" />
<glyph unicode="&#xe1;" horiz-adv-x="922" />
<glyph unicode="&#xe2;" horiz-adv-x="922" />
<glyph unicode="&#xe3;" horiz-adv-x="922" />
<glyph unicode="&#xe4;" horiz-adv-x="1200" d="M0 360q0 183 177 376q121 122 276 188q74 20 106 20h48q65 0 205 -56q96 0 130 -112l4 -20q-4 -59 -20 -88l4 -28q0 -12 -51 -148v-4l4 -8q-20 -51 -20 -124v-24q1 -48 8 -48q33 6 90 52l12 -8l20 4l4 -8l8 4q15 -4 15 -16l8 4q31 0 107 -44q13 8 23 8q20 -3 20 -12v-8 l-75 -92q0 -20 -87 -60q-69 -20 -141 -24q-57 0 -245 92q-174 -176 -283 -176q-65 0 -241 96q-106 109 -106 264zM292 360q0 -71 35 -140q174 104 272 312l23 64q-9 8 -15 8v8q47 69 47 128l-4 20h-8q-111 -20 -276 -156q-74 -110 -74 -244zM410 1120v24q6 51 82 144l8 -4 l24 44q67 -12 67 -20q-4 0 -4 -4l20 4q13 0 102 -44q1 8 8 8h4l28 -4q0 6 11 12l8 -4q0 6 24 44q33 -4 59 -12q0 4 4 4l4 -8q-4 0 -4 -4h4q8 4 12 4q39 -10 106 -48q0 6 12 12q24 -8 24 -16v-12q-52 -82 -52 -128q-51 -47 -75 -88v-8h-11v8l-12 -8h-8l-16 12v-8h-4l-43 28v4 l-12 -8l-51 28l-8 -4l-35 28h-16q-7 -20 -44 -48l4 -8q0 -6 -11 -12q-4 8 -4 12h-4q0 -12 -8 -12q-16 10 -16 16h-4v-8q-24 0 -24 16h-3l-8 -4q0 6 -16 16l-8 -4q-14 0 -35 20q-8 -4 -12 -4z" />
<glyph unicode="&#xe5;" horiz-adv-x="1200" d="M0 268v32q0 255 279 512q130 96 215 96q75 0 216 -56q90 0 177 -144v-8l-4 -8h4l11 8q4 0 4 -4l8 4q7 -4 16 -4v-32q-8 -9 -20 -68l4 -8q-12 -28 -12 -108v-44l4 -28h-4q19 -110 59 -160l47 -12q0 4 4 4q4 -8 4 -12l8 4q27 -4 94 -36q7 -4 16 -4h27q6 0 12 -12v-8 q-18 -14 -20 -28q-7 0 -39 -40q-9 -8 -16 -8l4 -20q-14 -8 -31 -8h-59q-101 0 -286 108q-55 35 -67 72q-195 -248 -341 -248q-53 0 -224 88q-90 55 -90 180zM286 312q6 -96 20 -96q115 90 192 212q72 112 134 232q0 4 -4 4q-38 22 -59 56q-89 -26 -192 -128 q-40 -63 -71 -160h4l-24 -92l4 -8zM373 1088q0 94 137 212q27 20 43 20q46 -4 59 -12l39 8q62 -1 185 -44q0 -6 82 -24q63 -38 63 -120q0 -62 -91 -152q-8 -32 -66 -64q-56 -28 -118 -28h-20q-80 0 -266 104q-43 45 -43 60h4q-8 18 -8 40zM663 1084q4 0 4 -4q4 0 23 16l-4 8 q0 4 4 4q-4 8 -4 12l4 20h-19q-8 -30 -8 -56z" />
<glyph unicode="&#xe6;" horiz-adv-x="1200" d="M0 385v53q0 141 242 236q43 14 57 14v4q-7 0 -53 10l-11 -7l-3 7l3 7l-7 4q0 -4 -3 -4q-5 20 -11 29v4l3 17l-7 4l4 18v3q-11 0 -11 22q4 6 4 14q-9 0 -11 28h4l-4 8v7q0 8 4 14q-4 6 -4 14q60 66 111 89q72 36 124 36q121 0 175 -39q46 -50 54 -79q99 118 238 118 q169 0 204 -75q46 -99 46 -160q21 -37 21 -72q0 -140 -214 -228q-102 -53 -146 -53h-46q-4 0 -39 7v-100q0 -23 46 -68q50 -46 71 -50q67 16 186 107h3q7 0 7 -17l22 14h10q8 -1 8 -7v-4l-4 -7l7 -4q3 0 39 15q22 -46 22 -57q-4 0 -4 -4q15 0 22 -82q3 0 3 -3l-3 -8l3 -7 q-3 -7 -3 -10l7 3q5 0 14 -18h-4l4 -7q-144 -121 -232 -121q-177 16 -196 46q-81 53 -114 136q-9 -11 -32 -121l-7 -4h-4l-10 7l-11 -7q-29 9 -29 11l-7 -4q-3 0 -3 4l-7 -4l-18 11h-7l-11 -7q-3 0 -11 10q-75 -35 -121 -35h-7q-193 17 -193 32q-66 26 -110 100 q-33 41 -50 210zM168 292q55 -35 71 -35q94 14 196 110l14 -21q8 14 18 14q0 20 18 121h-4q-102 0 -246 -100q-61 -56 -67 -89zM360 699h7q81 0 178 -25v3l18 86q0 15 -32 36q-92 -24 -171 -100zM820 695q104 50 143 93v3q-98 -27 -143 -92v-4z" />
<glyph unicode="&#xe7;" horiz-adv-x="905" />
<glyph unicode="&#xe8;" horiz-adv-x="909" />
<glyph unicode="&#xe9;" horiz-adv-x="909" />
<glyph unicode="&#xea;" horiz-adv-x="909" />
<glyph unicode="&#xeb;" horiz-adv-x="909" />
<glyph unicode="&#xec;" horiz-adv-x="514" />
<glyph unicode="&#xed;" horiz-adv-x="514" />
<glyph unicode="&#xee;" horiz-adv-x="514" />
<glyph unicode="&#xef;" horiz-adv-x="514" />
<glyph unicode="&#xf0;" horiz-adv-x="1139" />
<glyph unicode="&#xf1;" horiz-adv-x="1108" />
<glyph unicode="&#xf2;" horiz-adv-x="1010" />
<glyph unicode="&#xf3;" horiz-adv-x="1010" />
<glyph unicode="&#xf4;" horiz-adv-x="1010" />
<glyph unicode="&#xf5;" horiz-adv-x="1010" />
<glyph unicode="&#xf6;" horiz-adv-x="1010" d="M0 449q4 0 4 4q-4 0 -4 4q4 0 4 4h-4q10 112 120 262q235 286 383 286q71 0 194 -54q77 0 103 -54q20 -83 26 -83q60 -10 90 -21q73 -63 73 -191q-3 -58 -9 -58q0 -4 5 -4q0 -5 -22 -79q5 0 5 -4q-6 0 -35 -79q-45 -91 -228 -286q-111 -92 -167 -92l-39 -4v4l-9 -4 q-52 0 -253 83q-81 49 -117 79q-116 121 -116 257v21zM202 1150q27 129 35 129l17 -8q0 17 8 45h9l17 -12q11 45 17 54q69 -8 69 -12q0 -9 4 -9q45 0 95 -29h4q0 4 5 4q8 -16 25 -16l5 8l21 -4h13v-8q0 -43 -13 -63h5q-15 -75 -48 -104q-6 0 -30 -33q-7 0 -26 -33l-13 8 l-4 -8q-56 7 -56 25l-8 -4h-5q0 6 -13 16l-8 -4h-4q-22 0 -22 17h-13q-21 0 -69 33q-6 0 -17 8zM318 432q17 -101 39 -129q-4 0 -4 -4q4 0 47 -71q24 -29 34 -29q135 64 207 233h-5q31 75 31 145q0 4 4 4q0 5 -4 5l4 16q-3 47 -13 62q4 0 4 5q-4 0 -4 4h4q0 6 -26 37h-25 l-26 21q-8 -4 -17 -4q0 8 -9 8v-4q-53 33 -60 33q-181 -139 -181 -328v-4zM585 1121q30 107 30 129h4q8 -4 17 -4v12q6 31 18 34q0 -7 17 -17q14 58 26 58q0 -4 17 -12l8 4q21 -2 39 -17q52 0 90 -29q19 0 39 -17q1 9 9 9h8q12 0 26 -9l-8 -37h4q-21 -87 -39 -108 q-69 -64 -69 -87h-13v8l-12 -8l-22 8q-8 -4 -13 -4l-17 21l-9 -4l-17 12l-8 -4q-35 7 -35 25l-21 -4z" />
<glyph unicode="&#xf7;" horiz-adv-x="1014" />
<glyph unicode="&#xf8;" horiz-adv-x="900" d="M0 532v12q0 138 119 280q107 103 224 120q17 0 47 8v-4q7 4 51 12h30q15 26 55 140h12q0 -24 13 -24h4q3 20 13 20q1 -8 9 -8v8h12l-4 -20q8 0 8 -16h5q0 11 38 28q24 -29 30 -64h-5l22 -48l-5 -16l5 -8l-5 -8q9 -9 9 -48l8 4q13 -4 13 -24q-13 -44 -13 -48 q100 -70 157 -292q34 -101 34 -152v-4q0 -139 -93 -204q-126 -144 -280 -144l-119 12q-25 -92 -51 -200q0 -3 5 -24q-9 -18 -17 -20q-9 0 -9 12h-4q-10 -8 -17 -8q-30 9 -30 12l-8 -4h-4q-15 0 -30 12h-9l-12 -8q-28 0 -51 188v44q8 49 8 80q-101 73 -135 204 q-30 142 -30 200zM191 376l38 -32l80 256q-18 0 -72 -96q-46 -83 -46 -128zM471 300h8q173 103 216 224v4q-53 96 -93 96q-106 -240 -131 -324z" />
<glyph unicode="&#xf9;" horiz-adv-x="1059" />
<glyph unicode="&#xfa;" horiz-adv-x="1059" />
<glyph unicode="&#xfb;" horiz-adv-x="1059" />
<glyph unicode="&#xfc;" horiz-adv-x="1059" />
<glyph unicode="&#xfd;" horiz-adv-x="868" />
<glyph unicode="&#xfe;" horiz-adv-x="1010" />
<glyph unicode="&#xff;" horiz-adv-x="868" />
<glyph unicode="&#x2c6;" horiz-adv-x="1024" />
<glyph unicode="&#x2dc;" horiz-adv-x="1024" />
<glyph unicode="&#x2000;" horiz-adv-x="849" />
<glyph unicode="&#x2001;" horiz-adv-x="1699" />
<glyph unicode="&#x2002;" horiz-adv-x="849" />
<glyph unicode="&#x2003;" horiz-adv-x="1699" />
<glyph unicode="&#x2004;" horiz-adv-x="566" />
<glyph unicode="&#x2005;" horiz-adv-x="424" />
<glyph unicode="&#x2006;" horiz-adv-x="283" />
<glyph unicode="&#x2007;" horiz-adv-x="283" />
<glyph unicode="&#x2008;" horiz-adv-x="212" />
<glyph unicode="&#x2009;" horiz-adv-x="339" />
<glyph unicode="&#x200a;" horiz-adv-x="94" />
<glyph unicode="&#x2010;" horiz-adv-x="900" d="M0 505v4l7 11v4q-7 0 -7 4q6 15 11 15l-4 7v4q25 31 34 71q11 4 11 7l-3 8q10 28 44 67q10 0 30 -4q82 7 82 15q4 0 4 -4q436 71 504 71v4q4 0 4 -4q40 0 52 19h4q5 0 11 -11q-8 -12 -8 -23l15 12q26 -6 26 -19q-3 -5 -3 -19q15 -1 15 -7l7 4h8q11 0 11 -15l-8 -15 q4 -7 4 -15q-7 -9 -30 -82q-9 -5 -30 -56l8 -4q0 -39 -41 -45l-8 4q-211 -23 -250 -34l-7 4q-173 -30 -329 -52v3q-14 -7 -41 -7h-11q-4 0 -4 4l-7 -4h-4q-66 56 -78 75z" />
<glyph unicode="&#x2011;" horiz-adv-x="900" d="M0 505v4l7 11v4q-7 0 -7 4q6 15 11 15l-4 7v4q25 31 34 71q11 4 11 7l-3 8q10 28 44 67q10 0 30 -4q82 7 82 15q4 0 4 -4q436 71 504 71v4q4 0 4 -4q40 0 52 19h4q5 0 11 -11q-8 -12 -8 -23l15 12q26 -6 26 -19q-3 -5 -3 -19q15 -1 15 -7l7 4h8q11 0 11 -15l-8 -15 q4 -7 4 -15q-7 -9 -30 -82q-9 -5 -30 -56l8 -4q0 -39 -41 -45l-8 4q-211 -23 -250 -34l-7 4q-173 -30 -329 -52v3q-14 -7 -41 -7h-11q-4 0 -4 4l-7 -4h-4q-66 56 -78 75z" />
<glyph unicode="&#x2012;" horiz-adv-x="900" d="M0 505v4l7 11v4q-7 0 -7 4q6 15 11 15l-4 7v4q25 31 34 71q11 4 11 7l-3 8q10 28 44 67q10 0 30 -4q82 7 82 15q4 0 4 -4q436 71 504 71v4q4 0 4 -4q40 0 52 19h4q5 0 11 -11q-8 -12 -8 -23l15 12q26 -6 26 -19q-3 -5 -3 -19q15 -1 15 -7l7 4h8q11 0 11 -15l-8 -15 q4 -7 4 -15q-7 -9 -30 -82q-9 -5 -30 -56l8 -4q0 -39 -41 -45l-8 4q-211 -23 -250 -34l-7 4q-173 -30 -329 -52v3q-14 -7 -41 -7h-11q-4 0 -4 4l-7 -4h-4q-66 56 -78 75z" />
<glyph unicode="&#x2013;" horiz-adv-x="1108" />
<glyph unicode="&#x2014;" horiz-adv-x="2048" />
<glyph unicode="&#x2018;" horiz-adv-x="557" />
<glyph unicode="&#x2019;" horiz-adv-x="557" />
<glyph unicode="&#x201a;" horiz-adv-x="557" />
<glyph unicode="&#x201c;" horiz-adv-x="910" />
<glyph unicode="&#x201d;" horiz-adv-x="910" />
<glyph unicode="&#x201e;" horiz-adv-x="910" />
<glyph unicode="&#x2022;" horiz-adv-x="1024" />
<glyph unicode="&#x2026;" horiz-adv-x="2048" />
<glyph unicode="&#x202f;" horiz-adv-x="339" />
<glyph unicode="&#x2039;" horiz-adv-x="631" />
<glyph unicode="&#x203a;" horiz-adv-x="631" />
<glyph unicode="&#x205f;" horiz-adv-x="424" />
<glyph unicode="&#x20ac;" horiz-adv-x="1200" d="M0 478v16q18 13 19 27q50 30 50 113q4 0 4 3h-4q4 7 8 35h-4q12 33 12 47v4l-8 -4h-11q-19 10 -20 16q0 14 66 93q26 81 116 221q106 146 173 214q101 84 139 97v-4q107 51 201 51q77 0 262 -97q62 -37 62 -78v-12l-8 -3l-11 7q-4 -8 -8 -42h-8l-11 7h-4q-7 0 -16 -46 q-44 0 -135 35q0 4 -15 11l-8 -4q-19 16 -23 16q0 -8 -8 -8h-4q-3 0 -3 4l-8 -4h-4q-6 0 -12 12q0 4 4 4q-4 7 -4 15q-173 -47 -258 -159q-89 -135 -89 -148h8q163 43 201 43q39 0 65 -19q100 -35 143 -70v-4q0 -8 -8 -8q-11 4 -11 8q-7 -4 -16 -4v-4l12 -19l-16 -20 q0 8 -7 8h-16q0 -12 -4 -27q4 -8 4 -12l-8 -4l-19 4q-387 -85 -397 -93q0 -13 -4 -20h4q202 62 239 62q38 0 185 -77q8 -4 12 -4v-12q-5 0 -39 -4v-4q16 0 16 -7l-4 -24h-23q-8 -1 -16 -19q4 -8 4 -12q-12 -8 -131 -35l-266 -85v-4q0 -148 50 -276l15 -8q125 12 432 152 q45 21 74 66q25 23 57 70q2 -8 8 -8q0 8 12 8l15 -8q8 4 12 4q0 -9 46 -27q0 4 4 4l23 -16v-4h8q58 -11 58 -31q19 0 19 -8q-21 -87 -154 -194q-284 -153 -487 -175h-42q-105 0 -239 54q-53 0 -120 59q-21 0 -62 163l-19 202q-27 -4 -31 -4z" />
<glyph unicode="&#x2122;" horiz-adv-x="1497" />
<glyph unicode="&#x25fc;" horiz-adv-x="1165" d="M0 0v1165h1165v-1165h-1165z" />
</font>
</defs>
</svg>
